<svg width="56" height="72" viewBox="0 0 56 72" fill="none" xmlns="http://www.w3.org/2000/svg">
<path fill-rule="evenodd" clip-rule="evenodd" d="M37.2441 1.39644C35.2898 2.11763 33.993 3.68091 33.6274 5.75598C33.3438 7.36549 34.0277 9.31843 35.2875 10.4968C38.0025 13.0364 42.3466 12.2 43.9428 8.83043C44.3433 7.98478 44.3795 7.79522 44.3795 6.54077C44.3795 5.28809 44.343 5.09606 43.9454 4.25657C43.393 3.09061 42.4957 2.19326 41.3297 1.64098C40.5437 1.26856 40.238 1.20168 39.1823 1.17118C38.2418 1.14396 37.7844 1.19703 37.2441 1.39644ZM40.4816 3.60623C41.6088 4.17984 42.2615 5.26976 42.2566 6.57058C42.2437 9.94538 37.862 11.0725 36.1428 8.14316C35.3808 6.84467 35.7504 4.9463 36.9554 3.971C37.9053 3.20221 39.3866 3.04903 40.4816 3.60623ZM27.3517 9.37026C26.5618 9.42196 25.435 9.58964 24.8476 9.74282C23.7341 10.0332 13.0925 14.4437 12.0537 15.0455C11.1602 15.5631 10.4107 16.3853 9.97588 17.3249C9.63778 18.0558 6.60259 28.9229 6.35394 30.293C6.23112 30.9696 6.58371 32.1252 7.10481 32.7541C8.5346 34.4793 11.4142 34.2907 12.5102 32.3999C12.6878 32.0938 13.4932 29.5526 14.3001 26.753L15.7674 21.6629L22.1737 19.5275C28.963 17.2643 29.1297 17.1886 29.1297 16.3636C29.1297 15.9456 28.5557 15.3624 28.1444 15.3624C27.9718 15.3624 26.4249 15.831 24.707 16.4035C22.989 16.9762 21.5364 17.3917 21.4788 17.3267C21.3854 17.2214 20.1029 14.0672 20.1029 13.9428C20.1029 13.8358 24.4844 12.0752 25.2408 11.8782C26.5205 11.5449 28.2798 11.3748 29.4192 11.4742L30.477 11.5664L31.2407 12.5413C32.8589 14.6064 35.2955 16.027 37.6459 16.2758C38.3004 16.345 38.4458 16.4083 38.4995 16.6472C38.5954 17.0731 39.2507 21.0534 39.2507 21.2099C39.2507 21.3286 37.8728 21.6857 37.7766 21.592C37.7556 21.5716 37.8002 21.3926 37.8757 21.1942C38.2413 20.2325 37.0411 19.3334 36.2531 19.9784C36.0542 20.1413 35.3007 22.01 33.8958 25.8253C32.7602 28.9095 31.7877 31.4809 31.7345 31.5397C31.6814 31.5984 29.7352 31.349 27.4095 30.9855C24.1972 30.4834 23.1728 30.277 23.146 30.1265C23.1266 30.0176 23.5094 28.2715 23.9966 26.2464C24.9656 22.2184 24.9716 22.0658 24.1768 21.6849C23.8703 21.538 23.7278 21.5417 23.3313 21.7075C22.9548 21.8647 22.8239 22.0201 22.7094 22.4451C22.6297 22.7412 21.118 29.007 19.3501 36.3691C16.65 47.6132 16.0866 49.8012 15.8284 50.0455C15.6594 50.2055 12.4745 52.8918 8.75097 56.015C5.02741 59.1381 1.83205 61.8545 1.65028 62.0513C1.22739 62.5091 1.09828 63.6776 1.40505 64.2694C1.72756 64.8917 5.87182 70.8021 6.11993 70.9936C6.2835 71.1198 7.2305 71.1646 9.74077 71.1646H13.1401L13.4922 70.8124C13.8197 70.4849 13.8379 70.4016 13.7507 69.6311C13.5475 67.835 12.6775 66.4085 11.2105 65.466C10.2625 64.857 9.56981 64.2768 9.57432 64.0955C9.57583 64.0342 12.2231 62.1135 15.4572 59.8274C21.7496 55.3792 22.6401 54.624 23.5645 52.951C23.8277 52.4748 25.0704 49.5617 26.326 46.4776C27.5817 43.3934 28.6506 40.7949 28.7016 40.7032C28.7664 40.5861 30.4185 41.3118 34.2276 43.1308C37.2161 44.5577 39.8189 45.7253 40.0119 45.7253C40.8356 45.7253 41.3144 45.0474 41.0099 44.3124C40.8671 43.9677 40.4858 43.7362 38.4619 42.7654L36.0817 41.6237L36.3485 41.1784C36.4952 40.9336 36.9706 40.1315 37.405 39.396C37.8392 38.6605 38.2354 38.0335 38.2853 38.0028C38.376 37.9467 43.2335 41.0159 44.0992 41.6761C44.643 42.091 45.0965 42.9682 45.2153 43.8352C45.3931 45.1324 45.2259 45.387 40.315 51.2932C37.8263 54.2865 35.7734 56.7562 35.753 56.7817C35.7179 56.8256 35.2994 56.379 34.3614 55.2971L33.9445 54.8162L36.114 51.8778C38.3121 48.9007 38.4954 48.5469 38.1617 47.9234C37.9643 47.5546 37.3173 47.3284 36.9063 47.4846C36.479 47.6471 29.4467 57.16 29.1456 57.9831C28.7688 59.013 28.9397 59.2907 32.5723 63.5477C34.3818 65.6683 35.9853 67.511 36.1356 67.6427C36.2858 67.7743 36.6084 67.8821 36.8525 67.8821C37.2129 67.8821 37.4297 67.7409 38.0073 67.1302C38.3984 66.7167 38.8843 66.0243 39.0871 65.5916C39.4144 64.8932 39.4558 64.6432 39.4553 63.3687C39.4547 61.6218 39.1925 60.9283 37.9901 59.4926C37.555 58.9731 37.2003 58.5096 37.2018 58.4625C37.2034 58.4151 39.3181 55.8404 41.9011 52.7407C45.1263 48.8702 46.6923 46.8842 46.9003 46.401C47.8025 44.3038 47.4013 41.9923 45.8638 40.4282C45.4328 39.9896 43.1988 38.4709 39.49 36.0951C36.3495 34.0832 33.7799 32.4169 33.7799 32.3922C33.7799 32.3049 35.1742 28.5581 35.2717 28.3835C35.3373 28.266 35.5017 28.4509 35.7581 28.9305C36.419 30.166 36.9952 30.7672 37.9859 31.2551L38.9024 31.7064L45.5389 31.7501C50.0448 31.7797 52.3997 31.7451 52.8739 31.6421C56.0245 30.9579 56.2834 26.4926 53.2357 25.405C52.8418 25.2644 51.4921 25.2205 47.4288 25.2159L42.1353 25.2099L42.0547 24.7654C42.0105 24.5208 41.6138 22.1692 41.1732 19.5394C40.494 15.4858 40.33 14.7238 40.0958 14.5341C39.9139 14.3868 39.4152 14.2792 38.6374 14.2194C37.3474 14.1203 36.1108 13.7596 35.17 13.2083C34.2525 12.6707 33.0198 11.4633 32.4784 10.5719C32.1185 9.97943 31.8753 9.73434 31.5367 9.6226C30.8102 9.38271 28.9095 9.26823 27.3517 9.37026ZM18.774 16.4755C19.1339 17.3878 19.4108 18.1483 19.3895 18.1657C19.3681 18.183 18.2012 18.5784 16.7963 19.0445C15.3914 19.5105 14.1733 19.9746 14.0895 20.0755C14.0055 20.1766 13.2266 22.7119 12.3583 25.7093C11.2763 29.4447 10.6897 31.2562 10.4937 31.4671C9.90763 32.0979 8.75398 31.7637 8.5372 30.9004C8.45267 30.5636 11.4018 19.3821 11.8473 18.3506C12.2628 17.3881 12.903 16.9453 15.4527 15.8567C16.7691 15.2947 17.9077 14.8308 17.9829 14.8259C18.0582 14.821 18.4142 15.5632 18.774 16.4755ZM39.6619 23.5344C39.6623 23.5909 39.7841 24.3418 39.9325 25.203C40.1297 26.3492 40.2771 26.8443 40.4823 27.0494C40.7549 27.3221 40.9212 27.3307 46.6057 27.3643C50.6522 27.3882 52.5416 27.4469 52.7501 27.5549C53.1369 27.7553 53.3668 28.3985 53.2045 28.8256C52.9107 29.5983 53.0235 29.5865 45.9435 29.5865H39.4305L38.8316 29.2699C38.2976 28.9874 38.1305 28.7646 37.2866 27.209L36.3403 25.4649L36.5853 24.7442L36.8304 24.0234L38.1431 23.7415C39.7413 23.3983 39.6608 23.4093 39.6619 23.5344ZM27.5582 33.1853L32.073 33.8982L34.2755 35.3147L36.4782 36.7314L35.3812 38.5955C34.7777 39.6208 34.2419 40.5085 34.1902 40.5682C34.1385 40.6279 32.8429 40.0791 31.3109 39.3487C29.7789 38.6182 28.3504 38.0207 28.1362 38.0207C27.922 38.0207 27.6311 38.1386 27.4897 38.2827C27.3484 38.4269 26.7937 39.6194 26.257 40.9325C25.7203 42.2458 25.2542 43.364 25.2209 43.4176C25.1211 43.5794 20.2152 41.8846 20.2778 41.7101C20.3087 41.6242 20.8205 39.5075 21.4152 37.0065C22.3921 32.8972 22.5227 32.4598 22.7699 32.4658C22.9203 32.4693 25.075 32.7932 27.5582 33.1853ZM24.3191 45.5221C24.4307 45.6267 21.8226 51.7163 21.3817 52.3806C21.1095 52.7907 20.5719 53.4021 20.1871 53.7394C19.8023 54.0765 16.964 56.136 13.8798 58.316L8.27227 62.2794L7.96468 61.9008C7.79549 61.6927 7.47532 61.2701 7.25306 60.9618L6.84918 60.4014L12.4447 55.7105L18.0402 51.0196L18.8899 47.5049L19.7395 43.9901L22.007 44.7351C23.2541 45.1449 24.2945 45.4991 24.3191 45.5221ZM34.8002 59.0664C35.9255 60.376 36.9237 61.5953 37.0184 61.7761C37.3552 62.4188 37.4792 63.3249 37.3273 64.0328C37.0201 65.4656 37.1292 65.5358 34.0017 61.8935L31.1729 58.5991L31.8777 57.6329C32.2654 57.1016 32.6211 56.671 32.6683 56.6762C32.7155 56.6813 33.6748 57.7569 34.8002 59.0664ZM6.84344 64.0525C8.66603 66.5732 8.8091 66.7385 9.26714 66.8534C10.0045 67.0385 11.106 68.0863 11.3912 68.8736C11.4713 69.0949 11.3213 69.1127 9.39638 69.1096L7.31488 69.106L5.4001 66.3451C4.34698 64.8265 3.46727 63.5142 3.44511 63.4287C3.40299 63.2662 5.05709 61.8385 5.2182 61.8983C5.26908 61.9171 6.00039 62.8865 6.84344 64.0525Z" fill="#2D2A4C" stroke="#F2F2F2"/>
</svg>
