<svg width="98" height="73" viewBox="0 0 98 73" fill="none" xmlns="http://www.w3.org/2000/svg">
<path fill-rule="evenodd" clip-rule="evenodd" d="M38.7867 1.8948C36.6432 2.60517 35.0781 3.9568 34.1638 5.88726C33.6138 7.04811 33.5702 7.28378 33.5702 9.09631C33.5702 10.8315 33.6268 11.1736 34.0725 12.1243C34.7202 13.5063 36.1805 15.0431 37.4626 15.6918C41.9793 17.977 47.3171 15.2406 48.1968 10.189C48.3648 9.22356 48.3497 8.73489 48.1167 7.61745C47.6002 5.14093 46.2454 3.43608 43.9131 2.32851C42.9099 1.85195 42.4369 1.74576 41.1186 1.70124C40.1556 1.66882 39.239 1.74483 38.7867 1.8948ZM87.1189 1.88828C85.8434 2.24822 84.6826 3.002 83.6303 4.15316C82.2919 5.61768 81.8391 6.86106 81.8297 9.09631C81.8232 10.705 81.8761 10.9795 82.4121 12.1107C83.4416 14.2837 85.1055 15.6819 87.3836 16.2885C92.2474 17.5835 97.0385 13.4547 96.5688 8.37253C96.327 5.75685 94.3673 3.09235 92.0219 2.19028C90.7158 1.68801 88.3458 1.54195 87.1189 1.88828ZM42.7031 4.97363C44.3703 5.73095 45.2968 7.20479 45.2948 9.09631C45.2933 10.5562 44.8376 11.5462 43.7315 12.493C41.2583 14.6099 37.4585 13.4286 36.5294 10.2538C35.9157 8.15735 37.0378 5.79877 39.0661 4.92166C39.9741 4.52893 41.7811 4.55483 42.7031 4.97363ZM91.2253 5.08802C93.4108 6.19559 94.2805 8.88113 93.1733 11.103C92.0139 13.4293 89.0396 14.2686 86.8193 12.8959C84.3092 11.3441 83.9689 7.64558 86.159 5.72257C87.0998 4.8965 87.7996 4.64071 89.141 4.63233C90.0287 4.62674 90.5325 4.73703 91.2253 5.08802ZM10.2737 14.9324C7.51602 15.9949 6.31195 18.7945 7.51863 21.3375C8.03263 22.4208 9.17243 23.4079 10.2602 23.7117C10.8812 23.8852 13.0669 24.0476 16.5235 24.1769C19.4438 24.2863 22.4696 24.4247 23.2474 24.4843L24.6616 24.5929L23.3718 28.5858C22.5038 31.2728 21.8801 32.8785 21.4643 33.4963C21.1247 34.001 20.7243 34.7747 20.5745 35.2155C20.4249 35.6563 19.4312 38.6364 18.3664 41.838C17.205 45.3297 16.3372 47.6596 16.1977 47.6599C16.0697 47.6605 13.1919 47.0664 9.80269 46.3398C6.41348 45.6132 3.61858 45.0472 3.59193 45.0823C3.44941 45.2689 1.40698 57.7571 1.5033 57.8535C1.56608 57.9164 2.62708 58.1607 3.86077 58.3965C6.41628 58.885 7.22222 58.8213 8.58353 58.0235C9.22683 57.6465 10.3128 56.5378 10.4665 56.1013C10.4734 56.0813 12.5262 56.5216 15.0283 57.0794C20.3116 58.2575 21.3778 58.3306 22.8168 57.6135C23.3469 57.3493 24.006 56.8674 24.2817 56.5423C24.5573 56.2174 25.5657 54.3281 26.5228 52.3443L28.2628 48.7373L28.774 49.0697C29.0552 49.2526 29.9979 49.8671 30.8688 50.4353C31.7398 51.0035 32.4786 51.4834 32.5109 51.5017C32.5431 51.5199 32.3125 55.7564 31.9982 60.9157C31.6841 66.0752 31.4272 70.6111 31.4273 70.9952L31.4277 71.6938H37.8328H44.2379L44.3709 69.5659C44.4778 67.8527 44.4445 67.2341 44.1995 66.3911C43.8502 65.1897 42.9045 64.029 41.8267 63.4792C41.3865 63.2545 41.1154 62.984 41.1154 62.7689C41.1154 62.5777 41.4171 59.75 41.7857 56.4849C42.5108 50.0644 42.538 48.2369 41.9268 47.0472C41.7368 46.6772 39.9673 44.6962 37.9949 42.6451C36.0225 40.5941 34.4086 38.8283 34.4086 38.7213C34.4086 38.6142 34.9518 37.4426 35.616 36.1172L36.8232 33.7078L42.664 33.6515L48.5045 33.5951L49.421 33.0294C50.5021 32.3621 51.4442 30.9334 51.6329 29.6747C51.9036 27.8702 50.7871 25.7991 49.0459 24.8756C48.3617 24.5126 47.9416 24.467 44.723 24.4064L41.1577 24.3394L41.0813 23.2823C40.9835 21.9292 40.3969 20.727 39.313 19.6585C38.6018 18.9573 37.7108 18.472 34.1488 16.8457L29.8442 14.8803L23.9291 14.7547L18.014 14.6289V16.1477V17.6662H19.5044H20.9948V19.5542V21.4422L18.0605 21.3213C11.2633 21.0411 11.094 21.0215 10.5209 20.4485C9.81629 19.7437 9.82579 18.9325 10.5475 18.2108C11.0867 17.6716 11.1135 17.6662 13.2489 17.6662H15.4057V16.1758V14.6854L13.1235 14.6995C11.8598 14.7074 10.588 14.8113 10.2737 14.9324ZM58.813 14.8449C57.8789 15.1582 57.1888 15.6079 56.5405 16.3258C54.9942 18.0371 54.9948 20.6493 56.5416 22.3616C57.3636 23.2713 58.3862 23.8071 59.5254 23.925C60.0052 23.9748 63.1936 24.1322 66.6109 24.2749C70.028 24.4176 72.8531 24.5637 72.8887 24.5993C73.0728 24.7833 70.3418 32.5967 69.7629 33.5423C69.4045 34.1281 69.0293 34.8407 68.9292 35.1259C68.8294 35.4111 67.8749 38.2694 66.8082 41.4779C65.7416 44.6864 64.8127 47.4053 64.7438 47.5202C64.656 47.6665 62.7364 47.3278 58.3333 46.3894C54.8765 45.6525 52.0069 45.091 51.9564 45.1415C51.8138 45.284 49.6811 57.7789 49.782 57.8799C49.8312 57.9291 50.927 58.1638 52.2172 58.4012C55.4786 59.0014 56.6143 58.7149 58.2055 56.8897L58.9073 56.0847L63.3785 57.0881C68.4802 58.2331 69.6009 58.3157 71.0274 57.6515C72.4123 57.0065 73.0793 56.0799 74.8175 52.3849C75.678 50.5551 76.4394 48.9925 76.5093 48.9124C76.5792 48.8323 77.5718 49.3773 78.7151 50.1234C80.7887 51.4767 80.7939 51.4819 80.7958 52.2253C80.7967 52.6351 80.5465 57.0784 80.2398 62.0993C79.9332 67.1201 79.6817 71.333 79.6811 71.461C79.6802 71.6428 81.1104 71.6938 86.2143 71.6938H92.7487L92.6883 69.039C92.6405 66.9351 92.5578 66.2432 92.2897 65.7042C91.8603 64.8415 90.8183 63.7948 90.0041 63.4084L89.3737 63.1092L89.4888 61.7481L89.6038 60.3868L88.7145 60.2649C86.7548 59.9963 86.5821 60.1019 86.5758 61.5717C86.5709 62.7005 86.4936 62.7513 84.7834 62.7513H83.2197V62.0264C83.2197 61.254 83.7153 52.7097 83.8563 51.0488L83.9405 50.0588L78.7828 46.6619C73.4653 43.1598 72.6324 42.4573 71.8124 40.7818C71.2062 39.5427 71.1267 37.3859 71.6442 36.216C71.9693 35.4808 72.0811 35.3731 72.3615 35.5237C72.5442 35.6218 74.3186 36.7111 76.3048 37.9445L79.9157 40.1868L83.7913 44.2499C89.461 47.6879 87.9811 55.6121 87.7676 57.6959L87.6452 58.8903L89.0868 59.0209C89.8795 59.0928 90.561 59.1187 90.601 59.0788C90.7707 58.9089 90.6843 48.3992 90.4928 47.6879C90.2437 46.7629 90.0216 46.4976 85.8745 42.1735C84.1071 40.3304 82.6608 38.7558 82.6608 38.6742C82.6608 38.5926 83.1465 37.6115 83.7401 36.4941L84.8191 34.4623L86.8593 36.8084C89.2123 39.5139 89.9518 40.1102 91.3015 40.3904C94.1978 40.9916 96.8265 38.8242 96.8157 35.8439C96.8133 35.1542 96.6791 34.422 96.472 33.9677C96.2853 33.5578 94.6034 31.5189 92.7344 29.4368L89.3364 25.6509L89.461 24.745C89.7239 22.8331 88.7294 20.4009 87.2135 19.2485C86.7971 18.932 84.5807 17.8102 82.288 16.7556L78.1195 14.8382L68.6997 14.7631C63.5188 14.7219 59.0698 14.7586 58.813 14.8449ZM32.8049 19.4501C34.9676 20.4311 36.9374 21.4163 37.1818 21.6391C37.8553 22.2532 38.3766 23.5521 38.2406 24.2775C38.1484 24.7682 32.2422 36.4755 31.9285 36.7894C31.881 36.8367 30.3336 35.9425 28.4897 34.8017L25.137 32.728L25.7628 30.7396C26.1069 29.646 26.889 27.2027 27.5007 25.3098C28.1123 23.4172 28.5928 21.8487 28.5684 21.8241C28.5438 21.7997 27.5005 21.7218 26.2496 21.6512L23.9756 21.5227V19.5944V17.6662H26.424H28.8724L32.8049 19.4501ZM69.2471 19.5542V21.4424L66.4991 21.322C59.5251 21.0165 59.3721 21.001 58.8462 20.5487C58.1367 19.9384 58.1511 18.7352 58.8753 18.1122L59.3939 17.6662H64.3205H69.2471V19.5542ZM80.891 19.3429C82.9161 20.2651 84.8495 21.1905 85.1873 21.3993C85.9016 21.8407 86.5732 23.1001 86.5732 23.9983C86.5732 24.4426 85.6784 26.3554 83.4848 30.5999C81.7861 33.8866 80.3349 36.6398 80.2596 36.7177C80.113 36.8699 73.9136 33.1084 73.6596 32.7135C73.568 32.5708 74.1815 30.3866 75.2095 27.1959C76.1453 24.2913 76.8808 21.8843 76.8435 21.8472C76.8065 21.8101 75.7527 21.7218 74.5019 21.6512L72.2279 21.5227V19.5944V17.6662H74.7184H77.2089L80.891 19.3429ZM48.0977 27.7731C48.3777 28.0164 48.6243 28.4702 48.6855 28.8546C48.7712 29.393 48.697 29.6285 48.2899 30.1121L47.7892 30.7074H43.1482C40.5957 30.7074 38.5072 30.6621 38.5072 30.6068C38.5072 30.47 39.1976 29.1134 39.7595 28.1457L40.2193 27.3539H43.9172C47.4851 27.3539 47.6323 27.3686 48.0977 27.7731ZM90.9498 31.8252C92.4568 33.5159 93.7676 35.0998 93.863 35.3452C94.1251 36.0194 93.7322 36.991 93.0555 37.3408C91.9286 37.9236 91.5128 37.6585 88.9275 34.7093C87.6258 33.2245 86.5162 31.8932 86.4616 31.7512C86.3306 31.4099 87.8605 28.3775 88.0574 28.588C88.1415 28.6778 89.443 30.1345 90.9498 31.8252ZM27.4872 37.6231C29.5008 38.865 31.3465 40.0597 31.5887 40.2779C31.8309 40.4961 33.6963 42.4079 35.7339 44.5263L39.4387 48.3779V49.6768C39.4387 50.3913 39.1453 53.592 38.7867 56.7897C38.428 59.9874 38.1346 62.6368 38.1346 62.6774C38.1346 62.7182 37.3814 62.7513 36.4607 62.7513H34.7869L34.8814 61.6801C35.025 60.0513 35.5264 51.5099 35.5264 50.6898V49.9678L30.8222 46.9086C28.2351 45.2261 25.646 43.4044 25.069 42.8604C23.1466 41.0475 22.4465 38.4424 23.2925 36.2499C23.4803 35.7631 23.6772 35.3649 23.7299 35.3649C23.7828 35.3649 25.4737 36.381 27.4872 37.6231ZM23.9954 45.8776C24.6506 46.3709 25.2915 46.8152 25.4195 46.865C25.5477 46.9147 25.6524 47.0407 25.6524 47.1448C25.6524 47.5783 22.4167 54.1298 21.9701 54.6006C21.5626 55.03 21.3313 55.1122 20.5408 55.1079C19.6609 55.1035 11.5906 53.4094 11.3628 53.1814C11.2678 53.0864 11.6504 50.132 11.7905 49.8793C11.842 49.7864 17.1273 50.8321 18.0287 51.1136C18.2647 51.1874 18.5747 50.4588 19.5957 47.4304C20.2958 45.3541 20.9398 43.4588 21.0268 43.2185C21.1774 42.8038 21.2262 42.8371 21.9947 43.8812C22.4398 44.4859 23.3402 45.3843 23.9954 45.8776ZM71.0153 44.6566C71.5285 45.2071 72.4261 45.9828 73.01 46.3802L74.0717 47.1029L72.9427 49.4777C72.322 50.784 71.5749 52.3771 71.283 53.0184C70.5238 54.6848 70.0396 55.113 68.9134 55.113C68.1352 55.113 59.8157 53.3822 59.6113 53.1776C59.5387 53.1052 60.0648 49.8749 60.1602 49.8078C60.1883 49.7879 61.6366 50.0787 63.3785 50.4541L66.5457 51.1367L66.7696 50.6562C66.893 50.3921 67.5554 48.5024 68.2421 46.4572C69.4613 42.8254 69.4975 42.749 69.7864 43.1969C69.9491 43.4489 70.502 44.1058 71.0153 44.6566ZM7.54452 48.8573C8.19043 48.9959 8.75959 49.15 8.80933 49.1995C8.96974 49.3601 8.13603 54.0697 7.84261 54.6602C7.41393 55.5234 6.6363 55.907 5.62375 55.7551C5.16321 55.686 4.78744 55.5344 4.78874 55.4177C4.78986 55.3013 5.04137 53.7835 5.34765 52.0449C5.65374 50.3062 5.90432 48.818 5.90432 48.7381C5.90432 48.5423 6.16272 48.5611 7.54452 48.8573ZM55.8985 48.8661C56.4979 49.0091 57.0346 49.1727 57.0914 49.2295C57.2731 49.4112 56.3611 54.4281 56.0641 54.8816C55.6014 55.5878 54.8168 55.8962 53.8516 55.7514C53.1897 55.6521 53.025 55.5582 53.0885 55.3157C53.133 55.1456 53.4108 53.5633 53.7059 51.7994C54.3045 48.2211 54.137 48.4452 55.8985 48.8661ZM40.3682 66.0105C41.1395 66.4094 41.488 67.0026 41.488 67.9162V68.713H37.9265H34.3651L34.4775 68.2938C34.5392 68.0632 34.5909 67.3927 34.5922 66.8034L34.5949 65.7322H37.2124C39.1703 65.7322 39.9656 65.8024 40.3682 66.0105ZM88.4951 65.9418C89.4396 66.4284 89.7403 66.8802 89.7403 67.8139V68.713H86.2937H82.8471V67.5173C82.8471 65.6398 82.7055 65.7322 85.5807 65.7322C87.0726 65.7322 88.2529 65.8171 88.4951 65.9418Z" fill="#2D2A4C" stroke="#F2F2F2" stroke-width="1.7"/>
</svg>
