<svg width="68" height="72" viewBox="0 0 68 72" fill="none" xmlns="http://www.w3.org/2000/svg">
<path fill-rule="evenodd" clip-rule="evenodd" d="M23.473 1.39213C22.6851 1.49903 18.9272 2.31723 15.1219 3.21049C7.81028 4.92659 7.2063 5.1214 6.01981 6.14563C5.28883 6.77667 4.57822 7.85913 4.21594 8.89374C3.88688 9.83321 1.45811 25.8181 1.4629 27.0126C1.46673 27.9605 1.80672 28.7113 2.52526 29.3593C3.13594 29.9098 3.00196 29.862 8.70545 31.5639L12.0548 32.5632L12.1232 51.1462C12.1904 69.4203 12.196 69.7368 12.4649 70.1921C12.6153 70.4468 12.9527 70.7697 13.2147 70.9099C13.6733 71.155 14.4499 71.1646 33.9966 71.1646C53.5432 71.1646 54.3198 71.155 54.7785 70.9099C55.0404 70.7697 55.3778 70.4468 55.5282 70.1921C55.7971 69.7368 55.8027 69.4203 55.8699 51.1534L55.9383 32.5776L59.0826 31.6366C64.8737 29.9035 64.858 29.909 65.467 29.36C66.1879 28.7101 66.5264 27.9611 66.5302 27.0076C66.5319 26.5941 65.9577 22.4305 65.2542 17.7552C64.009 9.47954 63.9622 9.22704 63.4818 8.21553C62.8756 6.93922 61.857 5.87781 60.6564 5.27178C59.988 4.93439 58.2468 4.47245 52.9165 3.21828C49.1338 2.32831 45.2924 1.50327 44.3799 1.38488C42.084 1.08713 25.68 1.09274 23.473 1.39213ZM43.6016 3.44167L43.9788 3.56416L43.4676 4.45167C43.1689 4.97034 42.4111 5.88752 41.6446 6.65828C40.4811 7.82783 40.1713 8.05558 38.9075 8.67077C37.0152 9.59192 35.9824 9.83061 33.9282 9.82186C31.9081 9.81311 30.6893 9.51604 28.9009 8.5964C27.8674 8.06488 27.4046 7.71217 26.3381 6.64352C25.1798 5.48272 23.8997 3.70209 24.088 3.51371C24.1239 3.47789 24.7222 3.40352 25.4178 3.34857C27.1744 3.20953 43.1385 3.29129 43.6016 3.44167ZM22.3699 4.96911C24.4103 8.89115 28.4292 11.5795 32.8004 11.9464C36.3711 12.2463 39.6737 11.2111 42.4807 8.91206C43.5537 8.03344 44.9227 6.31569 45.6232 4.96911C45.9281 4.38318 46.2321 3.90388 46.2988 3.90388C46.4766 3.90388 48.2732 4.3274 48.3281 4.38222C48.3537 4.40792 48.1167 4.94136 47.8011 5.56762C45.305 10.5229 40.9258 13.5868 35.4986 14.1753C29.1763 14.8611 22.8867 11.2956 20.1147 5.45443C19.8454 4.88681 19.6442 4.40656 19.6677 4.38714C19.7448 4.32385 21.3454 3.93135 21.5833 3.91741C21.7405 3.90825 21.995 4.24866 22.3699 4.96911ZM17.7806 5.51075C19.5586 9.99329 23.4992 13.739 28.2228 15.4363C31.766 16.7095 36.2107 16.7102 39.7703 15.4383C44.3904 13.7874 48.4308 9.98646 50.1371 5.68615C50.4169 4.9806 50.5134 4.85879 50.7434 4.92058C50.8938 4.96091 51.6167 5.13029 52.3497 5.29667L53.6826 5.59934V35.1693V64.7392H51.8675C49.8918 64.7392 49.5514 64.8422 49.389 65.4891C49.2891 65.8873 49.5954 66.5769 49.9293 66.705C50.0509 66.7516 50.9453 66.7899 51.9166 66.7899H53.6826V67.9519V69.1139H33.9966H14.3105V67.9519V66.7899H30.4322H46.5539L46.8372 66.4296C46.993 66.2316 47.1206 65.9323 47.1206 65.7646C47.1206 65.5968 46.993 65.2976 46.8372 65.0995L46.5539 64.7392H30.4322H14.3105V35.1708V5.60248L15.7801 5.24854C16.5885 5.05387 17.3113 4.88722 17.3865 4.8782C17.4616 4.86918 17.639 5.1538 17.7806 5.51075ZM12.0675 30.2532C11.9813 30.3394 4.15401 27.9649 3.9406 27.7877C3.83876 27.7032 3.70396 27.4986 3.64094 27.333C3.56493 27.133 3.95851 24.1554 4.81322 18.4627C6.2168 9.11398 6.24702 8.98548 7.28546 7.95756C8.02847 7.22193 8.60934 6.95932 10.4508 6.5265L12.0548 6.14945L12.0897 18.1727C12.109 24.7856 12.099 30.2218 12.0675 30.2532ZM59.6657 7.16985C59.9465 7.3138 60.4154 7.66829 60.7077 7.95756C61.7461 8.98548 61.7763 9.11398 63.1799 18.4627C64.0346 24.1554 64.4282 27.133 64.3522 27.333C64.2892 27.4986 64.1544 27.7032 64.0525 27.7877C63.895 27.9184 56.2277 30.2887 55.9625 30.2887C55.9116 30.2887 55.8699 24.8526 55.8699 18.2085V6.1284L57.5125 6.51816C58.416 6.73265 59.3849 7.02589 59.6657 7.16985ZM18.6507 21.0508C17.8399 21.3401 17.2317 21.8878 16.8462 22.6756L16.4898 23.404L16.5281 31.9387C16.5706 41.4474 16.5048 40.8066 17.5401 41.8121C18.5351 42.7785 17.6495 42.7291 33.9966 42.7291C50.3271 42.7291 49.4794 42.7756 50.4578 41.8254C51.4902 40.8227 51.4269 41.4783 51.4269 31.7818V23.0901L51.0132 22.4208C50.7568 22.006 50.345 21.5943 49.9304 21.3378L49.2612 20.9241L37.0457 20.8871L24.8304 20.85L24.4919 21.1885C23.9429 21.7375 24.0792 22.5034 24.7939 22.8841C25.0142 23.0014 28.186 23.0431 36.903 23.0431H48.7134L49.0107 23.3594L49.3079 23.6759V31.8255V39.9752L48.9477 40.2584C48.5884 40.5411 48.5508 40.5418 33.9966 40.5418C19.4423 40.5418 19.4047 40.5411 19.0454 40.2584L18.6852 39.9752V31.8064V23.6376L19.0015 23.3403C19.2524 23.1048 19.4863 23.0427 20.1294 23.041C21.0874 23.0387 21.5567 22.8346 21.8076 22.3112C22.0224 21.8634 21.8258 21.21 21.4096 20.9873C21.052 20.7959 19.2486 20.8374 18.6507 21.0508ZM23.0612 27.461C22.4049 27.6699 21.5189 28.5939 21.3125 29.2845C21.0407 30.1942 21.4431 30.881 22.2479 30.881C22.6655 30.881 23.3333 30.3818 23.3333 30.0695C23.3333 29.7897 23.7388 29.4684 24.0917 29.4684C24.2909 29.4684 24.5082 29.602 24.6425 29.807C24.8503 30.1243 24.8462 30.1828 24.5764 30.7298C24.4179 31.0511 23.6715 32.1445 22.9177 33.1595C22.1637 34.1746 21.5088 35.1547 21.4621 35.3374C21.3565 35.7514 21.657 36.3114 22.107 36.5391C22.3309 36.6523 23.1217 36.7105 24.4535 36.7119C26.3644 36.7138 26.4804 36.6984 26.8345 36.3938C27.3451 35.9545 27.3451 35.286 26.8345 34.8468C26.5275 34.5827 26.3081 34.5266 25.5813 34.5266C25.0968 34.5266 24.7004 34.4908 24.7004 34.4472C24.7004 34.4035 25.0658 33.8647 25.5124 33.25C25.959 32.6353 26.4498 31.8559 26.6031 31.5181C27.6935 29.1142 25.5564 26.6663 23.0612 27.461ZM42.951 27.5408C42.3117 27.8375 41.5936 28.5541 41.3872 29.1013C41.0239 30.0649 41.4175 30.8355 42.2728 30.8355C42.7839 30.8355 43.0776 30.6035 43.4572 29.9C43.7191 29.4148 44.2173 29.3188 44.5818 29.6832C45.0612 30.1626 44.6339 30.9722 43.9014 30.9722C43.4903 30.9722 43.0193 31.5298 43.0193 32.0167C43.0193 32.4847 43.5012 33.0228 43.9205 33.0228C44.6356 33.0228 45.0544 33.8391 44.5818 34.3119C44.0974 34.7961 43.2928 34.3627 43.2928 33.6175C43.2928 33.2566 42.6937 32.7494 42.2674 32.7494C42.0997 32.7494 41.8004 32.877 41.6023 33.0328C41.3116 33.2615 41.2421 33.431 41.2421 33.9124C41.2421 34.6916 41.4341 35.1746 41.9682 35.7395C43.1469 36.9859 44.9036 37.0217 46.1033 35.8236C47.0174 34.911 47.2267 33.4498 46.5932 32.4042C46.3559 32.0124 46.3558 31.9826 46.593 31.5919C47.9739 29.3172 45.3685 26.4191 42.951 27.5408ZM28.7147 27.5777C28.4138 27.7233 28.1181 28.2285 28.1181 28.5967C28.1181 28.9369 28.8812 29.6051 29.2696 29.6051H29.6219V32.7599V35.9148L30.0215 36.3144C30.2413 36.5342 30.5211 36.714 30.6435 36.714C30.9813 36.714 31.6286 36.3418 31.7243 36.0926C31.7709 35.971 31.8092 34.1203 31.8092 31.9801V28.0889L31.4736 27.7534C31.1727 27.4524 31.0282 27.4187 30.0723 27.4271C29.4863 27.4321 28.8753 27.4999 28.7147 27.5777ZM36.4703 27.9373C36.2 28.223 35.3761 29.5303 34.6395 30.8423C33.5335 32.812 33.3132 33.2994 33.3754 33.638C33.5112 34.3787 33.856 34.5266 35.4472 34.5266H36.8674V35.1917C36.8674 36.0766 37.2438 36.5773 37.9089 36.5773C38.6236 36.5773 39.0548 36.0818 39.0548 35.2605C39.0548 34.7028 39.1137 34.5657 39.4877 34.2535C39.8065 33.9873 39.9206 33.778 39.9206 33.4592C39.9206 33.006 39.5529 32.476 39.2387 32.476C39.0933 32.476 39.0548 32.0731 39.0548 30.5552C39.0548 28.5041 38.945 28.0537 38.3416 27.6312C38.1741 27.5137 37.795 27.4178 37.4994 27.4178C37.0543 27.4178 36.8773 27.5072 36.4703 27.9373ZM36.8674 31.8608C36.8674 32.2545 36.817 32.3393 36.5827 32.3393C36.426 32.3393 36.3203 32.2932 36.3478 32.2368C36.6312 31.6551 36.7823 31.3823 36.8211 31.3823C36.8465 31.3823 36.8674 31.5976 36.8674 31.8608Z" fill="#2D2A4C" stroke="#F2F2F2"/>
</svg>
