<svg width="72" height="72" viewBox="0 0 72 72" fill="none" xmlns="http://www.w3.org/2000/svg">
<path fill-rule="evenodd" clip-rule="evenodd" d="M25.3911 1.41938C25.2308 1.59658 25.1631 1.92383 25.1631 2.5217V3.372L23.5441 3.37503C21.7465 3.37834 21.1314 3.55926 20.4511 4.28472C19.7029 5.08252 19.6515 5.39875 19.6515 9.19858C19.6515 12.978 19.7358 13.5789 20.4371 14.7913C21.2813 16.2513 22.1771 16.9455 24.6064 18.0221C26.2312 18.7422 26.3103 18.7967 26.6636 19.4421C27.6543 21.2527 29.1852 22.9284 30.8068 23.9774L31.777 24.605V27.3199V30.0347L31.1589 30.3627C30.0152 30.9694 28.9778 32.312 28.6169 33.6521L28.4594 34.2369H27.0392C25.1176 34.2369 25.1631 34.1774 25.1631 36.6936V38.6462H15.4703C6.25504 38.6462 5.76617 38.6586 5.54942 38.8982C5.34067 39.1289 5.32138 40.2452 5.32138 52.126V65.1018H3.34479C1.60492 65.1018 1.34091 65.132 1.14015 65.3538C0.945179 65.5692 0.912109 65.9764 0.912109 68.1572C0.912109 70.4538 0.937324 70.7312 1.16413 70.9365C1.39713 71.1475 4.00811 71.1646 35.9347 71.1646C69.2007 71.1646 70.4615 71.1555 70.6813 70.9125C70.8762 70.6972 70.9093 70.29 70.9093 68.1092C70.9093 65.8125 70.8841 65.5352 70.6573 65.3298C70.4478 65.1402 70.0762 65.1018 68.4526 65.1018H66.5V54.3067C66.5 44.0236 66.488 43.5006 66.248 43.2835C66.0186 43.0758 65.1308 43.0554 56.3271 43.0554H46.6583V38.8742C46.6583 34.9985 46.6398 34.6763 46.4063 34.4649C46.2068 34.2843 45.8639 34.2369 44.7582 34.2369H43.362L43.2045 33.6521C42.8436 32.312 41.8062 30.9694 40.6625 30.3627L40.0444 30.0347V27.3294V24.624L40.9695 24.0221C42.5967 22.9638 44.1755 21.2374 45.1578 19.4421C45.5111 18.7967 45.5902 18.7422 47.215 18.0221C49.0999 17.1867 49.825 16.7346 50.5266 15.957C51.1932 15.2182 51.5493 14.6012 51.8826 13.6073C52.144 12.8277 52.1699 12.4325 52.1699 9.22793C52.1699 5.39613 52.1193 5.08349 51.3703 4.28472C50.69 3.55926 50.0749 3.37834 48.2773 3.37503L46.6583 3.372V2.49773C46.6583 1.04005 47.689 1.16737 35.8867 1.16737C26.1147 1.16737 25.6082 1.17949 25.3911 1.41938ZM45.0037 8.0913C45.003 10.99 44.9387 13.9198 44.8607 14.6019C44.4902 17.839 42.6474 20.8316 39.9514 22.5745L38.9627 23.2137H35.9107H32.8587L31.87 22.5745C29.174 20.8316 27.3312 17.839 26.9607 14.6019C26.8827 13.9198 26.8184 10.99 26.8177 8.0913L26.8166 2.82084H35.9107H45.0048L45.0037 8.0913ZM25.1631 9.89166C25.1631 12.7559 25.2237 15.0856 25.3104 15.5545C25.3914 15.9927 25.4352 16.3736 25.408 16.4008C25.3807 16.4283 24.8586 16.2075 24.2479 15.9103C22.9761 15.2914 22.2818 14.61 21.7379 13.4472C21.3864 12.6953 21.3744 12.5826 21.3277 9.56413C21.2602 5.20888 21.3547 5.0416 23.8885 5.03085L25.1631 5.02548V9.89166ZM49.6301 5.2272C50.4212 5.55776 50.5167 5.97843 50.5142 9.12031C50.5113 12.826 50.2104 13.9431 48.9062 15.0881C48.4391 15.4983 46.5168 16.5043 46.4081 16.3955C46.3837 16.3711 46.43 15.9927 46.511 15.5545C46.5977 15.0856 46.6583 12.7559 46.6583 9.89166V5.02548H47.9028C48.6838 5.02548 49.3272 5.10057 49.6301 5.2272ZM35.327 5.81777C35.2098 5.95046 34.7901 6.70996 34.3942 7.50569C33.9983 8.30143 33.6552 8.97357 33.6319 8.99933C33.6085 9.0251 32.7957 9.16758 31.8257 9.31598C29.9174 9.60781 29.5724 9.77674 29.5724 10.4199C29.5724 10.7336 29.8338 11.0648 30.8879 12.0865L32.2033 13.3618L31.8934 15.2492C31.5913 17.0899 31.59 17.1438 31.8394 17.4194C32.2357 17.8573 32.6864 17.7662 34.3606 16.9103L35.9107 16.1176L37.4608 16.9103C39.1373 17.7674 39.5856 17.8574 39.9843 17.4168C40.237 17.1376 40.2358 17.0912 39.9244 15.2469L39.6062 13.3623L40.9276 12.0955C42.0034 11.0643 42.249 10.7544 42.249 10.4286C42.249 9.77068 41.9011 9.59789 39.9827 9.3033C39.0122 9.15435 38.2023 9.01449 38.1827 8.99244C38.163 8.97054 37.8231 8.30143 37.4272 7.50569C36.5786 5.79986 36.4032 5.57664 35.9107 5.57664C35.7068 5.57664 35.4441 5.68508 35.327 5.81777ZM36.3717 9.35304C36.5833 9.83861 36.8714 10.3399 37.0118 10.4671C37.1618 10.6029 37.7283 10.7644 38.385 10.8588L39.5029 11.0193L38.6713 11.8418C37.7528 12.7501 37.7199 12.8693 37.9871 14.3144C38.0681 14.7526 38.1101 15.1352 38.0806 15.1647C38.0511 15.1942 37.6284 15.0035 37.1412 14.741C36.6538 14.4784 36.1002 14.2636 35.9107 14.2636C35.7212 14.2636 35.1676 14.4784 34.6802 14.741C34.193 15.0035 33.7703 15.1942 33.7408 15.1647C33.7113 15.1352 33.7533 14.7526 33.8344 14.3144C34.1015 12.8693 34.0686 12.7501 33.1501 11.8418L32.3185 11.0193L33.4364 10.8588C34.0931 10.7644 34.6596 10.6029 34.8096 10.4671C34.95 10.3399 35.2382 9.83861 35.4497 9.35304C35.6612 8.86747 35.8687 8.47022 35.9107 8.47022C35.9527 8.47022 36.1602 8.86747 36.3717 9.35304ZM38.3909 27.3474V29.8276H35.9107H33.4305V27.3474V24.8672H35.9107H38.3909V27.3474ZM39.4044 31.6706C40.2941 32.0423 41.0246 32.8466 41.4219 33.8915L41.5532 34.2369H35.9055H30.2576L30.4698 33.7202C30.8862 32.7063 31.8032 31.8128 32.6272 31.6178C32.8795 31.5581 34.4056 31.503 36.0185 31.4952C38.2213 31.4845 39.0637 31.5282 39.4044 31.6706ZM45.0048 50.4961V65.1018H35.9107H26.8166V50.4961V35.8904H35.9107H45.0048V50.4961ZM25.1631 52.7007V65.1018H16.069H6.97486V52.7007V40.2997H16.069H25.1631V52.7007ZM34.1689 44.345C33.1172 45.3968 32.8793 45.7105 32.8793 46.046C32.8793 46.5322 33.2489 46.9136 33.72 46.9136C33.9052 46.9136 34.2878 46.723 34.5703 46.4901L35.084 46.0667V51.175V56.2833H34.2097C33.2366 56.2833 32.8793 56.5117 32.8793 57.134C32.8793 57.8663 33.1473 57.9367 35.9347 57.9367C38.2314 57.9367 38.5087 57.9115 38.714 57.6847C39.0152 57.352 39.0038 56.7953 38.6901 56.5113C38.5129 56.3509 38.1856 56.2833 37.5877 56.2833H36.7374V49.8974C36.7374 43.8859 36.7227 43.4982 36.4854 43.2835C35.941 42.7908 35.5387 42.9751 34.1689 44.345ZM64.8465 54.9054V65.1018H55.7524H46.6583V54.9054V44.7089H55.7524H64.8465V54.9054ZM14.554 45.5004C13.6896 45.8053 12.4667 47.0533 12.1662 47.9371C11.7026 49.3005 11.9522 50.2205 12.786 50.2205C13.2363 50.2205 13.5298 49.8719 13.652 49.1919C13.8497 48.0914 14.5249 47.3187 15.524 47.0497C17.1098 46.6227 18.719 48.1701 18.4576 49.8708C18.2499 51.2227 17.2638 52.4247 15.9689 52.9045C14.3753 53.4948 13.1521 54.6113 12.4452 56.1207C12.0836 56.8933 12.0053 57.2466 11.9582 58.3209C11.873 60.2596 11.6061 60.1414 16.069 60.1414C19.4568 60.1414 19.7645 60.1215 19.9746 59.8894C20.2758 59.5566 20.2644 58.9999 19.9507 58.7159C19.7323 58.5182 19.2937 58.4879 16.6524 58.4879H13.6061L13.6832 57.9712C13.9153 56.4126 14.7466 55.4495 16.6733 54.506C18.99 53.3719 20.0506 51.9443 20.1751 49.7924C20.257 48.3785 19.9768 47.5544 19.0815 46.5747C17.9611 45.3488 16.1809 44.9264 14.554 45.5004ZM51.8468 47.7167C51.665 47.9175 51.6187 48.2628 51.6187 49.4177C51.6187 51.0077 51.7594 51.3228 52.4694 51.3228C53.0382 51.3228 53.2722 50.9282 53.2722 49.9685V49.1182H55.4775H57.6829L56.3043 51.8726C55.546 53.3876 54.9257 54.7731 54.9257 54.9515C54.9257 55.3858 55.29 55.6876 55.9591 55.8077C57.0702 56.0073 57.8267 56.6655 58.0965 57.6674C58.535 59.2953 56.8355 60.9948 55.2075 60.5564C54.2056 60.2866 53.5474 59.5301 53.3479 58.419C53.224 57.7294 52.9239 57.3856 52.4455 57.3856C51.6404 57.3856 51.3941 58.3293 51.8497 59.669C52.1637 60.5925 53.3722 61.801 54.2957 62.1151C55.9034 62.6618 57.4693 62.303 58.6562 61.1161C59.5401 60.2322 59.8861 59.4154 59.8861 58.2123C59.8861 57.0024 59.541 56.1934 58.6399 55.2914C58.2087 54.8596 57.6925 54.4654 57.493 54.4154C57.2936 54.3652 57.1303 54.2685 57.1303 54.2002C57.1303 54.1318 57.7504 52.8371 58.5082 51.3228C59.2661 49.8085 59.8861 48.4237 59.8861 48.2453C59.8861 48.0669 59.7727 47.8181 59.6341 47.6928C59.413 47.4927 58.935 47.4647 55.7285 47.4647C52.3639 47.4647 52.0568 47.4847 51.8468 47.7167ZM69.2558 68.1332V69.5111H35.9107H2.56559V68.1332V66.7553H35.9107H69.2558V68.1332Z" fill="#2D2A4C" stroke="#F2F2F2" stroke-width="0.5"/>
</svg>
