<svg width="68" height="71" viewBox="0 0 68 71" fill="none" xmlns="http://www.w3.org/2000/svg">
<mask id="path-1-inside-1_155_8388" fill="white">
<path fill-rule="evenodd" clip-rule="evenodd" d="M33.0057 0.240598C32.7354 0.276475 32.1456 0.423098 31.6951 0.566444C27.7668 1.81593 25.2168 5.18252 25.2037 9.13642C25.1978 10.8982 25.4152 11.8571 26.1662 13.3823C28.817 18.7655 36.196 19.9955 40.5354 15.7772C41.6905 14.6544 42.6146 13.1149 42.998 11.675C43.3728 10.267 43.342 8.00129 42.93 6.67906C41.6045 2.42585 37.3464 -0.336556 33.0057 0.240598ZM35.7956 3.32885C37.6568 3.81361 38.984 4.95628 39.8601 6.82863C40.7724 8.77831 40.4613 11.3304 39.1022 13.0466C37.8796 14.5903 36.2574 15.3618 34.2344 15.3618C30.694 15.3618 28.1213 12.7773 28.1127 9.21195C28.1101 8.08287 28.1809 7.74261 28.6086 6.82863C29.4695 4.98905 30.8072 3.8195 32.6015 3.33721C33.7768 3.02135 34.6067 3.01906 35.7956 3.32885ZM11.4538 6.66022C10.0074 7.12319 8.91892 7.79929 7.88175 8.87955C6.28397 10.5433 5.53283 12.4299 5.54201 14.7563C5.56756 21.3376 12.8425 25.2412 18.4253 21.6695C21.0812 19.9703 22.6004 16.6433 22.1454 13.522C21.6828 10.3484 19.5934 7.81158 16.5599 6.74082C15.1805 6.25377 12.8392 6.21691 11.4538 6.66022ZM51.9089 6.74082C49.6946 7.52243 48.1114 8.93492 47.0839 11.0456C44.9352 15.4597 47.0712 20.7586 51.7018 22.5015C57.1234 24.5423 62.9184 20.5153 62.9166 14.7086C62.9153 10.8874 60.5206 7.69002 56.8533 6.61271C55.488 6.21167 53.2429 6.26983 51.9089 6.74082ZM15.1554 9.38871C17.7898 10.0697 19.5005 12.4409 19.2859 15.1142C19.1317 17.0346 17.9794 18.7211 16.237 19.577C15.4349 19.9708 15.1177 20.0307 13.8382 20.0307C12.4693 20.0307 12.2896 19.9904 11.3262 19.4682C9.75 18.6137 8.86912 17.3974 8.51214 15.5832C7.9612 12.7822 9.96133 9.87445 12.8297 9.30697C13.8497 9.1053 14.091 9.11365 15.1554 9.38871ZM56.8421 9.73062C60.2874 11.2825 61.1365 15.8183 58.4792 18.4756C58.1255 18.8293 57.4467 19.323 56.9706 19.5732C56.2116 19.9718 55.9232 20.028 54.6305 20.0293C53.3492 20.0306 53.035 19.9713 52.2318 19.577C50.4894 18.7211 49.337 17.0346 49.1829 15.1142C48.8505 10.9732 53.0491 8.02209 56.8421 9.73062ZM28.1648 20.6071C24.489 21.1769 21.3268 24.0731 20.3948 27.7239C20.1845 28.5476 20.146 30.3025 20.1491 38.9459C20.1525 48.8948 20.1623 49.2128 20.4861 49.9287C20.8945 50.8322 21.6512 51.6441 22.5209 52.112C23.0399 52.3911 23.456 52.4644 24.5214 52.4639L25.8666 52.4632L25.9139 59.5919L25.9612 66.7207L26.4471 67.5981C26.9901 68.5783 27.7181 69.2465 28.8231 69.7793C30.2916 70.4873 32.7118 70.1417 33.8638 69.0596L34.2344 68.7113L34.6049 69.0596C35.757 70.1417 38.1771 70.4873 39.6457 69.7793C40.7507 69.2465 41.4787 68.5783 42.0216 67.5981L42.5075 66.7207L42.5548 59.5919L42.6022 52.4632L43.9474 52.4639C45.0127 52.4644 45.4288 52.3911 45.9478 52.112C46.8176 51.6441 47.5743 50.8322 47.9827 49.9287C48.3064 49.2128 48.3162 48.8948 48.3197 38.9459C48.3228 30.3025 48.2843 28.5476 48.0739 27.7239C47.2677 24.5657 44.794 21.9549 41.6065 20.8975C40.6083 20.5665 40.1825 20.5419 34.8078 20.5053C31.6541 20.4837 28.6648 20.5296 28.1648 20.6071ZM40.165 23.5708C42.1176 23.9794 44.0094 25.464 44.8125 27.2179C45.4832 28.6831 45.5589 30.0493 45.5058 39.7449L45.4563 48.8104L44.9967 49.2057C44.3278 49.7809 43.5534 49.7385 43.0136 49.097L42.5894 48.593V40.4888V32.3846L42.1872 31.9826C41.6504 31.4455 40.8019 31.4427 40.1822 31.9757L39.7225 32.371L39.6406 49.2182C39.5506 67.7292 39.6232 66.5403 38.5525 67.0483C38.2677 67.1835 37.8541 67.2941 37.6332 67.2941C37.1192 67.2941 36.1831 66.6653 35.9183 66.1424C35.7625 65.8344 35.7131 63.7103 35.7113 57.249C35.7088 48.5473 35.6936 48.3257 35.0677 47.8452C34.7326 47.5878 33.7362 47.5878 33.401 47.8452C32.7752 48.3257 32.76 48.5473 32.7575 57.249C32.7557 63.7103 32.7062 65.8344 32.5504 66.1424C32.2857 66.6653 31.3496 67.2941 30.8355 67.2941C30.6147 67.2941 30.201 67.1835 29.9163 67.0483C28.8455 66.5403 28.9181 67.7292 28.8282 49.2182L28.7463 32.371L28.2866 31.9757C27.6668 31.4427 26.8184 31.4455 26.2815 31.9826L25.8793 32.3846V40.4888V48.593L25.4552 49.097C24.94 49.7093 24.176 49.7729 23.5212 49.2578L23.085 48.9146L23.1307 38.5683L23.1762 28.222L23.6153 27.2852C24.4478 25.5089 26.1939 24.0775 28.091 23.6162C29.1765 23.3523 38.9448 23.3154 40.165 23.5708ZM7.56819 25.1006C4.64146 25.8093 2.1148 28.2608 1.23932 31.2416C1.01308 32.0117 0.978516 33.4093 0.981628 41.6444C0.985724 52.4408 0.921013 51.8951 2.3453 53.1488C3.21832 53.9173 4.2568 54.2674 5.31052 54.1486L6.03889 54.0666L6.08869 60.3117C6.13784 66.4738 6.14357 66.5682 6.52561 67.4132C6.96138 68.3768 8.01723 69.4367 8.95349 69.8502C9.33782 70.0201 10.0206 70.1292 10.7256 70.1335C11.6558 70.1392 12.0326 70.058 12.7208 69.7033C13.1875 69.4629 13.6138 69.1943 13.6682 69.1063C13.7247 69.0149 14.0894 69.1507 14.5193 69.4235C16.099 70.4252 18.0312 70.4105 19.5798 69.3846C20.4066 68.837 21.1936 67.7569 21.4572 66.8083C21.548 66.4817 21.6184 63.7922 21.6189 60.6404C21.6199 55.3136 21.6047 55.032 21.2949 54.6382C20.8856 54.118 20.2336 53.948 19.6211 54.2017C18.7033 54.582 18.6711 54.8033 18.6711 60.7205V66.1222L18.2517 66.6206C17.7256 67.2458 16.9337 67.4207 16.244 67.0641C15.9684 66.9215 15.6831 66.7123 15.6097 66.599C15.5364 66.4858 15.4396 62.7558 15.3946 58.3104L15.3127 50.2277L14.853 49.8325C14.2332 49.2996 13.3848 49.3026 12.8479 49.8394L12.4457 50.2414V58.0883V65.935L12.0716 66.4917C11.3742 67.5295 9.98263 67.5023 9.33372 66.4381C9.01312 65.9122 9.00657 65.6044 9.00607 50.8197C9.00542 35.896 9.00198 35.734 8.67318 35.3813C7.94187 34.5962 6.81345 34.7399 6.3436 35.6778C6.08377 36.1961 6.05707 36.924 6.05691 43.4892L6.05658 50.7293L5.6924 50.9842C5.18389 51.3405 4.52597 51.302 4.15704 50.8946C3.86002 50.5665 3.84266 50.1436 3.79695 42.171C3.746 33.2761 3.80694 32.2932 4.49271 30.9401C4.97305 29.9919 6.31509 28.721 7.33162 28.2513C8.04885 27.9199 8.4245 27.8884 12.5653 27.8124L17.0261 27.7305L17.4263 27.3209C18.0443 26.6886 18.0538 25.8696 17.4497 25.2658L17.0477 24.8636L12.7398 24.8775C9.85092 24.8868 8.14747 24.9604 7.56819 25.1006ZM51.019 25.2658C50.415 25.8696 50.4245 26.6886 51.0424 27.3209L51.4426 27.7305L55.9034 27.8124C60.0442 27.8884 60.4199 27.9199 61.1371 28.2513C62.1537 28.721 63.4957 29.9919 63.976 30.9401C64.6618 32.2932 64.7227 33.2761 64.6718 42.171C64.6261 50.1436 64.6087 50.5665 64.3117 50.8946C63.9428 51.302 63.2849 51.3405 62.7763 50.9842L62.4122 50.7293L62.4118 43.4892C62.4117 36.924 62.385 36.1961 62.1251 35.6778C61.6553 34.7399 60.5269 34.5962 59.7956 35.3813C59.4668 35.734 59.4633 35.896 59.4627 50.8197C59.4622 65.6044 59.4556 65.9122 59.135 66.4381C58.4861 67.5023 57.0946 67.5295 56.3972 66.4917L56.023 65.935V58.0883V50.2414L55.6208 49.8394C55.084 49.3026 54.2355 49.2996 53.6158 49.8325L53.1561 50.2277L53.0742 58.3104C53.0291 62.7558 52.9323 66.4858 52.8591 66.599C52.7857 66.7123 52.5003 66.9215 52.2248 67.0641C51.535 67.4207 50.7431 67.2458 50.2171 66.6206L49.7977 66.1222V60.7205C49.7977 54.8033 49.7654 54.582 48.8477 54.2017C48.2351 53.948 47.5831 54.118 47.1739 54.6382C46.8641 55.032 46.8489 55.3136 46.8498 60.6404C46.8503 63.7922 46.9208 66.4817 47.0115 66.8083C47.2751 67.7569 48.0621 68.837 48.889 69.3846C50.4355 70.409 52.3697 70.4252 53.9436 69.4271C54.556 69.0388 54.7231 68.9934 54.8735 69.1746C55.3181 69.7105 56.5882 70.1372 57.7432 70.1389C59.6185 70.1415 61.1401 69.143 61.9533 67.376C62.3226 66.5736 62.3312 66.4301 62.3801 60.3155L62.4299 54.0741L63.2431 54.1522C64.2727 54.2512 65.3431 53.8595 66.2309 53.0592C67.5348 51.8836 67.483 52.353 67.4871 41.6444C67.4911 31.1705 67.5081 31.3717 66.4537 29.3804C65.3746 27.3424 62.9221 25.5115 60.643 25.0423C60.1489 24.9406 57.975 24.8636 55.5979 24.8636H51.421L51.019 25.2658Z"/>
</mask>
<path fill-rule="evenodd" clip-rule="evenodd" d="M33.0057 0.240598C32.7354 0.276475 32.1456 0.423098 31.6951 0.566444C27.7668 1.81593 25.2168 5.18252 25.2037 9.13642C25.1978 10.8982 25.4152 11.8571 26.1662 13.3823C28.817 18.7655 36.196 19.9955 40.5354 15.7772C41.6905 14.6544 42.6146 13.1149 42.998 11.675C43.3728 10.267 43.342 8.00129 42.93 6.67906C41.6045 2.42585 37.3464 -0.336556 33.0057 0.240598ZM35.7956 3.32885C37.6568 3.81361 38.984 4.95628 39.8601 6.82863C40.7724 8.77831 40.4613 11.3304 39.1022 13.0466C37.8796 14.5903 36.2574 15.3618 34.2344 15.3618C30.694 15.3618 28.1213 12.7773 28.1127 9.21195C28.1101 8.08287 28.1809 7.74261 28.6086 6.82863C29.4695 4.98905 30.8072 3.8195 32.6015 3.33721C33.7768 3.02135 34.6067 3.01906 35.7956 3.32885ZM11.4538 6.66022C10.0074 7.12319 8.91892 7.79929 7.88175 8.87955C6.28397 10.5433 5.53283 12.4299 5.54201 14.7563C5.56756 21.3376 12.8425 25.2412 18.4253 21.6695C21.0812 19.9703 22.6004 16.6433 22.1454 13.522C21.6828 10.3484 19.5934 7.81158 16.5599 6.74082C15.1805 6.25377 12.8392 6.21691 11.4538 6.66022ZM51.9089 6.74082C49.6946 7.52243 48.1114 8.93492 47.0839 11.0456C44.9352 15.4597 47.0712 20.7586 51.7018 22.5015C57.1234 24.5423 62.9184 20.5153 62.9166 14.7086C62.9153 10.8874 60.5206 7.69002 56.8533 6.61271C55.488 6.21167 53.2429 6.26983 51.9089 6.74082ZM15.1554 9.38871C17.7898 10.0697 19.5005 12.4409 19.2859 15.1142C19.1317 17.0346 17.9794 18.7211 16.237 19.577C15.4349 19.9708 15.1177 20.0307 13.8382 20.0307C12.4693 20.0307 12.2896 19.9904 11.3262 19.4682C9.75 18.6137 8.86912 17.3974 8.51214 15.5832C7.9612 12.7822 9.96133 9.87445 12.8297 9.30697C13.8497 9.1053 14.091 9.11365 15.1554 9.38871ZM56.8421 9.73062C60.2874 11.2825 61.1365 15.8183 58.4792 18.4756C58.1255 18.8293 57.4467 19.323 56.9706 19.5732C56.2116 19.9718 55.9232 20.028 54.6305 20.0293C53.3492 20.0306 53.035 19.9713 52.2318 19.577C50.4894 18.7211 49.337 17.0346 49.1829 15.1142C48.8505 10.9732 53.0491 8.02209 56.8421 9.73062ZM28.1648 20.6071C24.489 21.1769 21.3268 24.0731 20.3948 27.7239C20.1845 28.5476 20.146 30.3025 20.1491 38.9459C20.1525 48.8948 20.1623 49.2128 20.4861 49.9287C20.8945 50.8322 21.6512 51.6441 22.5209 52.112C23.0399 52.3911 23.456 52.4644 24.5214 52.4639L25.8666 52.4632L25.9139 59.5919L25.9612 66.7207L26.4471 67.5981C26.9901 68.5783 27.7181 69.2465 28.8231 69.7793C30.2916 70.4873 32.7118 70.1417 33.8638 69.0596L34.2344 68.7113L34.6049 69.0596C35.757 70.1417 38.1771 70.4873 39.6457 69.7793C40.7507 69.2465 41.4787 68.5783 42.0216 67.5981L42.5075 66.7207L42.5548 59.5919L42.6022 52.4632L43.9474 52.4639C45.0127 52.4644 45.4288 52.3911 45.9478 52.112C46.8176 51.6441 47.5743 50.8322 47.9827 49.9287C48.3064 49.2128 48.3162 48.8948 48.3197 38.9459C48.3228 30.3025 48.2843 28.5476 48.0739 27.7239C47.2677 24.5657 44.794 21.9549 41.6065 20.8975C40.6083 20.5665 40.1825 20.5419 34.8078 20.5053C31.6541 20.4837 28.6648 20.5296 28.1648 20.6071ZM40.165 23.5708C42.1176 23.9794 44.0094 25.464 44.8125 27.2179C45.4832 28.6831 45.5589 30.0493 45.5058 39.7449L45.4563 48.8104L44.9967 49.2057C44.3278 49.7809 43.5534 49.7385 43.0136 49.097L42.5894 48.593V40.4888V32.3846L42.1872 31.9826C41.6504 31.4455 40.8019 31.4427 40.1822 31.9757L39.7225 32.371L39.6406 49.2182C39.5506 67.7292 39.6232 66.5403 38.5525 67.0483C38.2677 67.1835 37.8541 67.2941 37.6332 67.2941C37.1192 67.2941 36.1831 66.6653 35.9183 66.1424C35.7625 65.8344 35.7131 63.7103 35.7113 57.249C35.7088 48.5473 35.6936 48.3257 35.0677 47.8452C34.7326 47.5878 33.7362 47.5878 33.401 47.8452C32.7752 48.3257 32.76 48.5473 32.7575 57.249C32.7557 63.7103 32.7062 65.8344 32.5504 66.1424C32.2857 66.6653 31.3496 67.2941 30.8355 67.2941C30.6147 67.2941 30.201 67.1835 29.9163 67.0483C28.8455 66.5403 28.9181 67.7292 28.8282 49.2182L28.7463 32.371L28.2866 31.9757C27.6668 31.4427 26.8184 31.4455 26.2815 31.9826L25.8793 32.3846V40.4888V48.593L25.4552 49.097C24.94 49.7093 24.176 49.7729 23.5212 49.2578L23.085 48.9146L23.1307 38.5683L23.1762 28.222L23.6153 27.2852C24.4478 25.5089 26.1939 24.0775 28.091 23.6162C29.1765 23.3523 38.9448 23.3154 40.165 23.5708ZM7.56819 25.1006C4.64146 25.8093 2.1148 28.2608 1.23932 31.2416C1.01308 32.0117 0.978516 33.4093 0.981628 41.6444C0.985724 52.4408 0.921013 51.8951 2.3453 53.1488C3.21832 53.9173 4.2568 54.2674 5.31052 54.1486L6.03889 54.0666L6.08869 60.3117C6.13784 66.4738 6.14357 66.5682 6.52561 67.4132C6.96138 68.3768 8.01723 69.4367 8.95349 69.8502C9.33782 70.0201 10.0206 70.1292 10.7256 70.1335C11.6558 70.1392 12.0326 70.058 12.7208 69.7033C13.1875 69.4629 13.6138 69.1943 13.6682 69.1063C13.7247 69.0149 14.0894 69.1507 14.5193 69.4235C16.099 70.4252 18.0312 70.4105 19.5798 69.3846C20.4066 68.837 21.1936 67.7569 21.4572 66.8083C21.548 66.4817 21.6184 63.7922 21.6189 60.6404C21.6199 55.3136 21.6047 55.032 21.2949 54.6382C20.8856 54.118 20.2336 53.948 19.6211 54.2017C18.7033 54.582 18.6711 54.8033 18.6711 60.7205V66.1222L18.2517 66.6206C17.7256 67.2458 16.9337 67.4207 16.244 67.0641C15.9684 66.9215 15.6831 66.7123 15.6097 66.599C15.5364 66.4858 15.4396 62.7558 15.3946 58.3104L15.3127 50.2277L14.853 49.8325C14.2332 49.2996 13.3848 49.3026 12.8479 49.8394L12.4457 50.2414V58.0883V65.935L12.0716 66.4917C11.3742 67.5295 9.98263 67.5023 9.33372 66.4381C9.01312 65.9122 9.00657 65.6044 9.00607 50.8197C9.00542 35.896 9.00198 35.734 8.67318 35.3813C7.94187 34.5962 6.81345 34.7399 6.3436 35.6778C6.08377 36.1961 6.05707 36.924 6.05691 43.4892L6.05658 50.7293L5.6924 50.9842C5.18389 51.3405 4.52597 51.302 4.15704 50.8946C3.86002 50.5665 3.84266 50.1436 3.79695 42.171C3.746 33.2761 3.80694 32.2932 4.49271 30.9401C4.97305 29.9919 6.31509 28.721 7.33162 28.2513C8.04885 27.9199 8.4245 27.8884 12.5653 27.8124L17.0261 27.7305L17.4263 27.3209C18.0443 26.6886 18.0538 25.8696 17.4497 25.2658L17.0477 24.8636L12.7398 24.8775C9.85092 24.8868 8.14747 24.9604 7.56819 25.1006ZM51.019 25.2658C50.415 25.8696 50.4245 26.6886 51.0424 27.3209L51.4426 27.7305L55.9034 27.8124C60.0442 27.8884 60.4199 27.9199 61.1371 28.2513C62.1537 28.721 63.4957 29.9919 63.976 30.9401C64.6618 32.2932 64.7227 33.2761 64.6718 42.171C64.6261 50.1436 64.6087 50.5665 64.3117 50.8946C63.9428 51.302 63.2849 51.3405 62.7763 50.9842L62.4122 50.7293L62.4118 43.4892C62.4117 36.924 62.385 36.1961 62.1251 35.6778C61.6553 34.7399 60.5269 34.5962 59.7956 35.3813C59.4668 35.734 59.4633 35.896 59.4627 50.8197C59.4622 65.6044 59.4556 65.9122 59.135 66.4381C58.4861 67.5023 57.0946 67.5295 56.3972 66.4917L56.023 65.935V58.0883V50.2414L55.6208 49.8394C55.084 49.3026 54.2355 49.2996 53.6158 49.8325L53.1561 50.2277L53.0742 58.3104C53.0291 62.7558 52.9323 66.4858 52.8591 66.599C52.7857 66.7123 52.5003 66.9215 52.2248 67.0641C51.535 67.4207 50.7431 67.2458 50.2171 66.6206L49.7977 66.1222V60.7205C49.7977 54.8033 49.7654 54.582 48.8477 54.2017C48.2351 53.948 47.5831 54.118 47.1739 54.6382C46.8641 55.032 46.8489 55.3136 46.8498 60.6404C46.8503 63.7922 46.9208 66.4817 47.0115 66.8083C47.2751 67.7569 48.0621 68.837 48.889 69.3846C50.4355 70.409 52.3697 70.4252 53.9436 69.4271C54.556 69.0388 54.7231 68.9934 54.8735 69.1746C55.3181 69.7105 56.5882 70.1372 57.7432 70.1389C59.6185 70.1415 61.1401 69.143 61.9533 67.376C62.3226 66.5736 62.3312 66.4301 62.3801 60.3155L62.4299 54.0741L63.2431 54.1522C64.2727 54.2512 65.3431 53.8595 66.2309 53.0592C67.5348 51.8836 67.483 52.353 67.4871 41.6444C67.4911 31.1705 67.5081 31.3717 66.4537 29.3804C65.3746 27.3424 62.9221 25.5115 60.643 25.0423C60.1489 24.9406 57.975 24.8636 55.5979 24.8636H51.421L51.019 25.2658Z" fill="#2D2A4C" stroke="#F2F2F2" stroke-width="1.4" mask="url(#path-1-inside-1_155_8388)"/>
</svg>
