<svg width="73" height="72" viewBox="0 0 73 72" fill="none" xmlns="http://www.w3.org/2000/svg">
<path fill-rule="evenodd" clip-rule="evenodd" d="M6.26363 1.3666C5.18043 1.74238 4.33266 2.49188 3.79231 3.55127C3.36739 4.38437 3.31216 4.61371 3.32005 5.51435L3.32905 6.53416L5.79871 11.5942C7.15693 14.3771 8.34076 16.7143 8.42948 16.7878C8.51806 16.8613 8.77689 16.9587 9.00458 17.0042C9.56403 17.1162 10.2029 16.5851 10.1999 16.0107C10.1985 15.7729 9.22299 13.6265 7.81494 10.7639C5.61767 6.29637 5.43718 5.87242 5.49504 5.31546C5.60507 4.25772 6.55789 3.35888 7.56898 3.35888C8.53675 3.35888 9.20403 3.87695 9.85968 5.13704C10.3099 6.00267 10.5329 6.28142 10.922 6.4662C11.5104 6.74538 12.0117 6.66524 12.6571 6.1891C13.1912 5.79505 13.5676 5.76238 14.0094 6.07187C14.4364 6.37098 14.6115 6.87008 14.4438 7.31092C14.3699 7.50525 13.923 8.17198 13.4507 8.79247C12.8157 9.62654 12.5944 10.0306 12.6013 10.3423C12.6159 10.9971 23.8134 33.6041 24.439 34.2419C24.7741 34.5834 25.1581 34.8018 25.6407 34.9255L26.3499 35.1073V38.3087C26.3499 41.8966 26.2467 42.5139 25.4774 43.5225C25.2296 43.8472 24.7485 44.3257 24.4082 44.5858L23.7893 45.0586L23.7139 43.9668L23.6383 42.8752L19.8522 35.1934C17.77 30.9684 15.1748 25.6982 14.0852 23.482C12.3911 20.0361 12.047 19.4288 11.7091 19.2889C11.2834 19.1125 10.7491 19.2358 10.4785 19.5731C10.0071 20.1608 9.96418 20.062 15.8533 31.984L21.5748 43.5672L21.607 46.1278C21.6247 47.5361 21.5936 49.1867 21.5378 49.7957L21.4364 50.903L20.295 49.4295C18.8457 47.5583 17.8695 46.6686 16.5907 46.0536C14.8861 45.2337 14.1566 45.1589 7.853 45.1589C3.12863 45.1589 2.18951 45.1916 1.84846 45.3679C1.3434 45.6291 1.15918 45.9652 1.15918 46.6253C1.15918 47.0711 1.27185 47.2536 1.98992 47.9717L2.8208 48.8026L1.98992 49.6678C1.26465 50.4232 1.15918 50.6014 1.15918 51.0725C1.15918 51.6649 1.50119 52.1442 2.08113 52.3647C2.26993 52.4366 4.54623 52.4947 7.16842 52.4947C10.4319 52.4947 12.0608 52.5452 12.3844 52.6566C13.2661 52.9602 13.8891 53.4972 14.9208 54.8433C16.1132 56.3987 17.1867 57.4252 18.2984 58.0725C19.1909 58.5923 20.3952 59.0958 21.0499 59.2228L21.4939 59.3091L21.5343 64.9107L21.5748 70.5123L21.9631 70.8462C22.4591 71.2726 22.9502 71.2707 23.3803 70.8404L23.7201 70.5007V65.0271V59.5537H36.5923H49.4645V65.0271V70.5007L49.8043 70.8404C50.2345 71.2707 50.7256 71.2726 51.2215 70.8462L51.6099 70.5123L51.6503 64.9089L51.6909 59.3055L52.1537 59.2186C52.8656 59.0851 54.2729 58.4779 55.1062 57.9449C56.1896 57.2517 57.1094 56.3472 58.2729 54.8305C59.2963 53.4964 59.9202 52.9596 60.8002 52.6566C61.1238 52.5452 62.7528 52.4947 66.0162 52.4947C68.6384 52.4947 70.9147 52.4366 71.1035 52.3647C71.6835 52.1442 72.0255 51.6649 72.0255 51.0725C72.0255 50.6014 71.92 50.4232 71.1947 49.6678L70.3639 48.8026L71.1947 47.9717C71.9128 47.2536 72.0255 47.0711 72.0255 46.6253C72.0255 45.3917 71.5442 45.1589 68.9939 45.1589C67.8482 45.1589 66.9154 45.2229 66.7126 45.3153C66.0243 45.6288 65.9185 46.737 66.5357 47.1691C66.7189 47.2975 67.1558 47.3735 67.7107 47.3735H68.5939L68.1644 47.8628C67.5875 48.5197 67.5849 49.1309 68.1559 49.7813L68.5771 50.261L64.5919 50.3086C60.8581 50.3532 60.5586 50.3756 59.8453 50.6633C58.6783 51.1339 57.825 51.8705 56.5549 53.504C54.8865 55.6496 53.4689 56.6682 51.5075 57.1306C50.2124 57.4361 22.9723 57.4361 21.6772 57.1306C19.7158 56.6682 18.2982 55.6496 16.6298 53.504C15.3597 51.8705 14.5064 51.1339 13.3393 50.6633C12.626 50.3755 12.3269 50.3532 8.58215 50.3085L4.58609 50.2609L4.95994 49.8707C5.18679 49.6339 5.36258 49.2656 5.40701 48.9337C5.47054 48.4609 5.42016 48.318 5.03565 47.8801L4.5908 47.3735L9.13801 47.3768C13.875 47.3804 14.4185 47.4325 15.6127 47.9975C16.6317 48.4795 17.3658 49.1586 18.5297 50.6955C19.7196 52.2666 20.5579 53.0327 21.7194 53.6108C23.421 54.4578 22.9017 54.4291 36.5923 54.4291C50.283 54.4291 49.7636 54.4578 51.4653 53.6108C52.6268 53.0327 53.465 52.2666 54.6549 50.6955C55.8188 49.1586 56.553 48.4795 57.5719 47.9975C58.6157 47.5036 59.3138 47.3807 61.0948 47.3768C62.2735 47.3743 62.7666 47.3201 62.9821 47.1691C63.5993 46.737 63.4936 45.6288 62.8053 45.3153C62.3203 45.0943 59.9285 45.1211 58.6706 45.3618C57.2865 45.6266 55.7691 46.3674 54.8043 47.2492C54.3789 47.638 53.5189 48.6191 52.893 49.4295L51.7552 50.903L51.6379 50.2109C51.5734 49.8303 51.5424 48.1486 51.5691 46.4738L51.6176 43.4288L60.6539 25.1705C67.1367 12.0718 69.7292 6.7015 69.8281 6.16654C70.3197 3.5074 67.9559 0.93517 65.2467 1.18085C63.7823 1.31359 62.532 2.10322 61.8224 3.34324C61.6214 3.69439 61.4458 3.99875 61.4321 4.01965C61.4184 4.04055 61.0402 3.9618 60.5917 3.8447C58.4578 3.28732 56.4926 4.76043 56.4977 6.91355C56.5002 7.94346 56.6559 8.33101 57.5448 9.51816L58.2701 10.487L52.8408 21.4907C49.8547 27.5427 47.3416 32.5723 47.2561 32.6674C47.1401 32.7965 46.276 32.8404 43.8535 32.8404H40.6062L40.609 31.1448L40.6118 29.4493L41.6125 28.979C42.7814 28.4298 44.1983 27.101 44.8377 25.9546L45.243 25.2281L46.4887 25.2271C48.0018 25.226 48.6331 25.0649 49.2517 24.5217C50.0225 23.8449 50.1859 23.2034 50.1331 21.0611C50.0979 19.6345 50.0315 19.0983 49.8452 18.7358C49.6391 18.3348 49.6029 17.8652 49.6029 15.5811C49.6029 13.6777 49.5394 12.5874 49.3843 11.8307C48.424 7.14621 44.5981 3.33784 39.9614 2.45063C38.573 2.18502 34.6117 2.18502 33.2233 2.45063C29.376 3.18684 25.8852 6.08239 24.4231 9.75014C23.7475 11.4454 23.5817 12.5941 23.5817 15.5811C23.5817 17.8652 23.5456 18.3348 23.3395 18.7358C23.1532 19.0983 23.0868 19.6345 23.0516 21.0611C22.9987 23.2034 23.1622 23.8449 23.933 24.5217C24.5516 25.0649 25.1829 25.226 26.696 25.2271L27.9417 25.2281L28.3455 25.9546C28.9676 27.0734 30.4458 28.4516 31.6008 28.9898L32.5784 29.4453V31.1428V32.8404H29.3427C26.5034 32.8404 26.0838 32.8124 25.917 32.6117C25.8126 32.486 23.2934 27.4566 20.319 21.4351L14.9108 10.487L15.5142 9.69533C16.3482 8.6005 16.6548 7.86609 16.6568 6.95756C16.6604 5.37456 15.6526 4.10602 14.1249 3.77038C13.4434 3.62062 13.0781 3.65674 12.0244 3.97813C11.8009 4.04637 11.6837 3.94104 11.4157 3.43141C11.0049 2.65063 10.1845 1.89477 9.34465 1.52314C8.49966 1.14943 7.09506 1.07801 6.26363 1.3666ZM66.6288 3.67031C67.3929 4.19018 67.6666 4.67226 67.657 5.47975C67.6489 6.14204 66.9631 7.57916 58.5971 24.4665L49.5462 42.7367L49.4708 43.8976L49.3953 45.0586L48.7765 44.5858C48.4361 44.3257 47.955 43.8472 47.7073 43.5225C46.938 42.5139 46.8347 41.8966 46.8347 38.3087V35.1073L47.5439 34.9255C48.0262 34.8019 48.4111 34.5831 48.7463 34.2419C49.3728 33.6041 60.5694 10.9982 60.5836 10.3423C60.5904 10.0308 60.3688 9.6264 59.7365 8.79579C58.6251 7.33584 58.5127 7.08614 58.7306 6.56046C59.0381 5.81802 59.8983 5.68986 60.6477 6.27492C61.1229 6.64586 61.6891 6.72378 62.2396 6.49375C62.6349 6.32862 62.8328 6.08336 63.3084 5.16902C63.7671 4.28748 64.0147 3.97356 64.464 3.70422C65.2016 3.26213 66.0104 3.2494 66.6288 3.67031ZM39.9834 4.67378C43.4744 5.57664 46.2404 8.32644 47.121 11.7696C47.3316 12.5934 47.3884 13.2947 47.3884 15.0767V17.3384H46.6271H45.8658L45.865 16.6117C45.8639 15.5577 45.6568 14.967 45.0985 14.4257L44.6052 13.9473L41.533 13.8627C39.1478 13.7971 38.1371 13.7101 37.0134 13.4737C35.4723 13.1494 33.156 12.4397 31.5021 11.7852C29.904 11.1528 28.7428 11.2902 27.9752 12.2026C27.4413 12.8371 27.3205 13.4457 27.3196 15.5044L27.3188 17.3384H26.5576H25.7963V15.0767C25.7963 13.2802 25.8523 12.596 26.0687 11.7498C27.0497 7.91426 30.3996 4.96472 34.3445 4.46271C35.6741 4.29357 38.9935 4.41786 39.9834 4.67378ZM31.2041 14.0061C35.3192 15.5551 38.2267 16.1357 41.527 16.0676L43.6709 16.0235L43.6265 19.7606L43.5821 23.4976L43.2037 24.3054C42.4619 25.8886 41.5008 26.7695 39.9417 27.2947C39.2077 27.542 38.7532 27.5808 36.5923 27.5808C34.4315 27.5808 33.9769 27.542 33.2429 27.2947C31.6722 26.7655 30.769 25.9508 30.0303 24.3973L29.6026 23.4976L29.5597 18.6708C29.5212 14.3405 29.5469 13.4629 29.7118 13.4629C29.7386 13.4629 30.4102 13.7073 31.2041 14.0061ZM27.3455 21.2885L27.388 23.0241L26.3499 22.984L25.3119 22.944L25.2723 21.4303C25.2505 20.5979 25.2642 19.8349 25.3026 19.7348C25.351 19.6086 25.668 19.5529 26.3376 19.5529H27.303L27.3455 21.2885ZM47.8728 21.2831V22.944L46.8347 22.984L45.7966 23.0241L45.8393 21.2827L45.8819 19.5412L46.8774 19.5816L47.8728 19.6221V21.2831ZM38.3917 31.7126C38.3917 33.4735 38.4173 33.6683 38.7049 34.1002C38.8772 34.3589 39.2509 34.6847 39.5354 34.8241C40.0098 35.0567 40.0525 35.1254 40.0512 35.6545C40.0483 36.9025 38.9196 38.4102 37.7193 38.7698C36.4452 39.1515 34.9177 38.7767 34.0745 37.8752C33.5541 37.3189 33.1387 36.337 33.1351 35.6545C33.1323 35.1268 33.1754 35.0562 33.6421 34.8241C34.6061 34.3449 34.7181 34.0436 34.7686 31.7927L34.8135 29.7953H36.6026H38.3917V31.7126ZM30.9175 35.4634C30.9175 37.3317 32.1516 39.4355 33.8241 40.4186C35.4232 41.3586 37.7615 41.3586 39.3605 40.4186C41.0331 39.4355 42.2672 37.3317 42.2672 35.4634V35.0549H43.4437H44.6202V38.3223C44.6202 41.9405 44.7288 42.6693 45.4779 44.0792C46.0466 45.1498 47.4228 46.4442 48.5563 46.9746L49.4645 47.3997V49.7247C49.4645 51.8094 49.4395 52.06 49.2223 52.1481C49.0892 52.2021 48.1549 52.2799 47.1461 52.321L45.3122 52.3956V49.4439C45.3122 46.7412 45.288 46.442 45.0256 45.8998C44.8573 45.5523 44.5287 45.1771 44.2297 44.9912L43.7205 44.6745H36.5923H29.4642L28.955 44.9912C28.656 45.1771 28.3274 45.5523 28.1591 45.8998C27.8967 46.442 27.8725 46.7412 27.8725 49.4439V52.3956L26.0385 52.321C25.0298 52.2799 24.0955 52.2021 23.9623 52.1481C23.7452 52.0601 23.7201 51.8098 23.7201 49.7327V47.4156L24.7419 46.9107C25.4828 46.5444 25.9964 46.1567 26.6108 45.4998C28.3024 43.6918 28.5597 42.739 28.5624 38.273L28.5645 35.0549H29.741H30.9175V35.4634ZM43.0976 49.5881V52.3563H36.5923H30.087V49.5881V46.8199H36.5923H43.0976V49.5881Z" fill="#2D2A4C" stroke="#F2F2F2"/>
</svg>
