<svg width="67" height="73" viewBox="0 0 67 73" fill="none" xmlns="http://www.w3.org/2000/svg">
<path fill-rule="evenodd" clip-rule="evenodd" d="M34.8534 2.05196C46.2716 3.60758 55.7145 11.569 59.2632 22.6322C60.0376 25.0467 60.3459 27.056 60.5074 30.7449C60.7336 35.9065 60.8457 36.3368 63.7532 43.1905C65.7422 47.8793 65.8595 48.4498 65.1269 49.873C64.5416 51.0106 63.7443 51.4829 61.2585 52.1644C60.0741 52.4892 59.0245 52.8417 58.9261 52.9479C58.7635 53.1234 58.5198 54.5299 57.2809 62.4431C57.0601 63.8524 56.7324 65.3383 56.5525 65.7452C56.0602 66.8577 54.8644 68.0374 53.6692 68.5894L52.635 69.0672L46.8285 69.1176C43.0555 69.1504 40.6461 69.1028 39.9483 68.9819C36.9751 68.4665 34.294 66.4622 32.9607 63.7585C32.2339 62.2846 31.7437 60.2814 31.8706 59.3044C32.0237 58.1264 33.0252 57.5113 34.0757 57.9502C34.7632 58.2376 34.8197 58.3537 35.059 59.9742C35.5031 62.9807 37.285 65.0385 40.0599 65.7496C40.91 65.9672 42.0077 66.0029 46.6383 65.9631C51.9536 65.9173 52.2164 65.9002 52.6544 65.573C53.6847 64.8033 53.7156 64.6958 54.7332 58.33C55.2623 55.0198 55.8233 52.0252 55.9799 51.6753C56.4207 50.6911 57.3486 50.0064 58.8171 49.5822C59.5228 49.3781 60.6042 49.0659 61.2201 48.8881C62.0801 48.6397 62.3399 48.4939 62.3399 48.2593C62.3399 48.0913 61.5866 46.172 60.6659 43.9944C57.8654 37.3705 57.5885 36.2887 57.3635 31.0913C57.2026 27.3782 56.9269 25.6341 56.1077 23.1498C53.5275 15.3259 47.0777 8.85889 39.2963 6.29379C30.778 3.48565 21.2528 5.25013 14.3104 10.9222C9.70422 14.6855 6.57954 19.7265 5.15963 25.685C4.5468 28.2573 4.43101 32.9155 4.91028 35.7218C5.52427 39.317 6.83319 42.6737 8.85631 45.8415C10.112 47.8076 10.9886 49.7048 11.4322 51.4169C11.7754 52.7409 11.7967 53.2379 11.864 61.5475C11.9274 69.3786 11.9067 70.3452 11.6641 70.8564C11.1744 71.8883 10.0279 72.1074 9.24004 71.3196L8.75512 70.8346L8.75213 63.0662C8.75047 58.7935 8.6798 54.6378 8.59486 53.8312C8.37372 51.7284 7.75858 50.055 6.4226 47.9227C3.33675 42.9969 1.8012 38.4813 1.48019 33.389C0.91581 24.4348 4.09241 16.245 10.5174 10.09C17.0268 3.8541 26.0957 0.858662 34.8534 2.05196ZM33.9181 10.4387C35.1094 10.6376 36.7697 11.2875 37.8464 11.9761C39.6356 13.1206 41.5354 15.4853 42.0962 17.2657C42.2813 17.8533 42.3304 17.888 42.9844 17.8898C45.7272 17.8976 49.2107 20.2033 50.5171 22.8756C52.7635 27.4706 51.1815 32.8151 46.831 35.3276C45.7882 35.93 44.0929 36.4683 43.239 36.4683C42.7631 36.4683 42.564 36.5465 42.4993 36.7587C42.0247 38.3178 40.9487 39.7616 39.6447 40.5894C38.3724 41.3972 37.3472 41.6112 34.7487 41.6112C31.931 41.6112 31.3133 41.7728 30.3093 42.7724C29.3191 43.7584 29.1605 44.4226 29.1605 47.585C29.1605 48.9883 29.0852 50.2343 28.9896 50.4128C28.7301 50.8979 27.8867 51.2714 27.328 51.1486C27.0634 51.0905 26.6583 50.8188 26.4277 50.5447C26.0171 50.0567 26.0084 49.9915 26.0084 47.3567C26.0084 43.5172 26.4958 41.9445 28.1716 40.3769C29.7712 38.8808 31.176 38.4609 34.6017 38.4555C37.2189 38.4513 37.8842 38.2522 38.7362 37.2187C39.7288 36.0145 39.8317 34.4749 39.0047 33.1997C38.4232 32.3028 37.6818 31.8466 36.455 31.6305C35.122 31.3957 34.6351 30.9591 34.6351 29.9984C34.6351 29.4914 34.7426 29.2122 35.06 28.8948C35.4526 28.5021 35.5747 28.4751 36.6775 28.536C38.39 28.6305 39.6747 29.2538 40.9354 30.6014C41.5837 31.2943 42.0212 31.943 42.2174 32.5019L42.5152 33.3505L43.3079 33.2577C45.0669 33.0519 47.0203 31.5301 47.8803 29.6956C48.2611 28.8832 48.3216 28.538 48.3216 27.1781C48.3216 25.8182 48.2611 25.473 47.8803 24.6606C47.6375 24.1428 47.1242 23.3776 46.7393 22.9602C45.9951 22.1527 44.3948 21.261 43.4003 21.0998L42.8004 21.0024L42.6848 21.8425C42.5384 22.9069 41.9744 23.5284 41.1545 23.5284C39.9811 23.5284 39.4068 22.7395 39.5644 21.345C39.6898 20.2365 39.2071 18.2746 38.5251 17.1204C36.9958 14.5319 33.9088 13.0677 31.0358 13.5681C30.4248 13.6744 29.5258 13.9503 29.0377 14.1812C27.8144 14.7599 26.3381 16.1745 25.6916 17.3872C24.9714 18.7382 24.7272 18.8733 23.0143 18.867C20.2256 18.8567 18.2045 20.0999 17.0667 22.5253C16.6968 23.314 16.6352 23.6704 16.6352 25.0214C16.6352 26.4555 16.6838 26.7002 17.1744 27.7358C17.8402 29.1417 17.8494 29.5562 17.2287 30.177C16.5176 30.8881 15.6934 30.8532 14.9656 30.0815L14.418 29.5008L14.0716 29.9874C13.2246 31.1771 12.9955 33.054 13.5124 34.571C13.8993 35.7062 15.2034 36.9878 16.3642 37.3733C18.2678 38.0057 20.4301 37.4515 21.7037 36.0045C22.2688 35.3625 22.8564 34.1075 22.8564 33.5423C22.8564 33.4253 22.4722 32.9721 22.0027 32.5349C19.5378 30.2406 19.3556 25.8509 21.7253 25.8509C22.3854 25.8509 23.1738 26.4012 23.1998 26.8803C23.2063 26.9984 23.2287 27.5539 23.2494 28.1144C23.3134 29.8399 24.4482 30.9937 26.0808 30.9937C26.962 30.9937 27.5672 30.7271 28.1651 30.0757C28.3932 29.8271 28.8226 29.5204 29.119 29.3942C29.8889 29.0662 30.7393 29.4341 31.0764 30.2412C31.4024 31.0213 31.1391 31.6575 30.0923 32.6194C29.1709 33.4659 28.0709 33.9746 26.8913 34.099L26.0323 34.1898L25.7569 35.0315C25.0975 37.0477 24.0588 38.4498 22.4592 39.4837C19.7667 41.224 16.324 41.224 13.6315 39.4837C12.3672 38.6665 11.5407 37.6981 10.7752 36.1366C10.1714 34.9049 10.1652 34.8714 10.1652 32.8186C10.1652 30.7708 10.1729 30.729 10.7771 29.4637C11.187 28.6051 11.7207 27.8414 12.3946 27.1484L13.4002 26.1142V25.0136C13.4002 23.5944 13.917 21.5885 14.5887 20.4007C15.2887 19.1633 17.0566 17.4364 18.2957 16.7802C19.3883 16.2013 20.7848 15.7941 22.1928 15.6434C23.0404 15.5527 23.1348 15.4979 23.52 14.8725C23.7481 14.5022 24.4498 13.7208 25.0792 13.1362C27.4791 10.9071 30.748 9.90952 33.9181 10.4387ZM33.3909 19.2714C34.3901 19.6021 35.0812 19.9987 35.8169 20.6635C37.0449 21.7728 37.2603 22.6868 36.4958 23.5423C36.1341 23.9473 35.8989 24.0592 35.411 24.0592C34.899 24.0592 34.6419 23.9227 33.9695 23.2938C33.0619 22.4447 32.5632 22.2012 31.7319 22.2012C30.0638 22.2012 28.8403 23.5798 28.8323 25.4684C28.8274 26.6461 28.324 27.2536 27.3532 27.2536C26.8308 27.2536 26.5657 27.1469 26.2158 26.7964C25.7903 26.37 25.7599 26.2468 25.7649 24.9609C25.7697 23.75 25.8352 23.4507 26.3041 22.4983C27.3197 20.4352 29.2053 19.1986 31.4797 19.1037C32.2137 19.0732 33.0005 19.1422 33.3909 19.2714Z" fill="#2D2A4C" stroke="#F2F2F2" stroke-width="1.7"/>
</svg>
