<svg width="207" height="47" viewBox="0 0 207 47" fill="none" xmlns="http://www.w3.org/2000/svg">
<path d="M66.7359 15.335L57.9392 39.871H65.796L66.837 36.6108H74.9625L75.9697 39.871H83.8265L75.0636 15.335H66.7359ZM68.6165 30.7581L70.2618 25.5351C70.4963 24.6237 70.732 23.6425 70.8996 22.3808C71.0676 23.6425 71.3025 24.6237 71.5712 25.5351L73.2168 30.7581H68.6165ZM103.363 26.8321C105.781 25.8509 106.721 24.0627 106.721 21.5396C106.721 17.2629 103.699 15.335 98.3933 15.335H86.6419V39.871H98.0915C103.027 39.871 107.661 38.4339 107.661 32.8606C107.661 29.7055 106.116 27.7078 103.363 26.8321ZM94.398 21.2936H97.3192C98.6285 21.2936 99.2667 22.0995 99.2667 23.1164C99.2667 24.0976 98.6285 24.9387 97.3192 24.9387L94.398 24.9042V21.2936ZM97.6882 33.9124H94.398V29.9169H97.6882C99.1659 29.9169 99.9386 30.6176 99.9386 31.9146C99.9386 33.2117 99.1659 33.9124 97.6882 33.9124ZM188.884 15.335V39.871H196.64V22.4153H206.511V15.335H188.884ZM175.677 24.0627H169.297V15.335H161.541V39.871H169.297V31.1433H175.677V39.871H183.399V15.335H175.677V24.0627ZM141.407 15.335L132.61 39.871H140.467L141.507 36.6108H149.633L150.64 39.871H158.497L149.734 15.335H141.407ZM143.287 30.7581L144.932 25.5351C145.167 24.6237 145.403 23.6425 145.57 22.3808C145.738 23.6425 145.973 24.6237 146.242 25.5351L147.887 30.7581H143.287ZM122.322 15.335H112.047V39.871H119.803V33.4569H122.322C128.299 33.4569 132.865 31.2838 132.865 24.4134C132.865 17.5081 128.299 15.335 122.322 15.335ZM122.254 26.7975H119.803V21.9944H122.254C124.034 21.9944 125.176 22.6958 125.176 24.4134C125.176 26.0957 124.034 26.7975 122.254 26.7975Z" fill="#891A1C"/>
<path d="M42.0881 15.0742L22.9261 0V16.4893L29.4735 21.6398L42.0881 15.0742ZM20.3234 16.4893V0L1.16099 15.0742L13.7756 21.6398L20.3234 16.4893ZM14.2461 34.7174L1.96893 46.0049H41.2496L28.6351 34.7174H14.2461ZM12.6139 24.0714L0 17.5058V44.1947L12.6139 32.5967V24.0714ZM30.6353 24.0714V32.9281L43.2491 44.2152V17.5058L30.6353 24.0714Z" fill="#891A1C"/>
</svg>