<?xml version="1.0" encoding="utf-8"?>
<!-- Generator: Adobe Illustrator 27.0.0, SVG Export Plug-In . SVG Version: 6.00 Build 0)  -->
<svg version="1.1" id="Слой_1" xmlns="http://www.w3.org/2000/svg" xmlns:xlink="http://www.w3.org/1999/xlink" x="0px" y="0px"
	 viewBox="0 0 283 99" style="enable-background:new 0 0 283 99;" xml:space="preserve">
<style type="text/css">
	.st0{fill-rule:evenodd;clip-rule:evenodd;fill:#821EBE;}
</style>
<path class="st0" d="M260.2,26L260.2,26v17.3v20.4v8.9c0,4.6-3.8,8.4-8.4,8.4l0,0V63.7V43.3v-8.9C251.8,29.8,255.6,26,260.2,26
	L260.2,26z M35.2,36c0-3,2.4-5.5,5.5-5.5s5.5,2.4,5.5,5.5c0,3-2.4,5.5-5.5,5.5S35.2,39.1,35.2,36L35.2,36z M66.6,36
	c0-3,2.4-5.5,5.5-5.5c3,0,5.5,2.4,5.5,5.5c0,3-2.4,5.5-5.5,5.5C69.1,41.5,66.6,39.1,66.6,36L66.6,36z M56.4,30.6
	c3,0,5.5,2.4,5.5,5.5c0,3-2.4,5.5-5.5,5.5c-3,0-5.5-2.4-5.5-5.5C50.9,33,53.4,30.6,56.4,30.6L56.4,30.6z M56.4,46.3
	c3,0,5.5,2.4,5.5,5.5c0,3-2.4,5.5-5.5,5.5c-3,0-5.5-2.4-5.5-5.5C50.9,48.7,53.4,46.3,56.4,46.3L56.4,46.3z M56.4,62
	c3,0,5.5,2.4,5.5,5.5c0,3-2.4,5.5-5.5,5.5c-3,0-5.5-2.4-5.5-5.5C50.9,64.4,53.4,62,56.4,62L56.4,62z M56.4,5.9
	c22.3,0,40.5,17.4,41.8,39.4l0.1,44.4H56.4c-23.1,0-41.9-18.8-41.9-41.9C14.5,24.7,33.2,5.9,56.4,5.9L56.4,5.9z M56.4,14.5
	c17.7,0,32.2,13.9,33.2,31.3l0.1,35.3H56.4c-18.4,0-33.3-14.9-33.3-33.3C23.1,29.4,38,14.5,56.4,14.5L56.4,14.5z M182,48.5l3-3
	c-4-4.1-9.2-6.3-14.9-6.3c-11.6,0-20.9,9.4-20.9,20.9c0,19.1,23,27.7,35.9,14.6l-3-3c-0.5-0.5-1-1-1.7-1.2c-1.2-0.4-2.4-0.3-3.5,0.3
	c-0.9,0.6-1.9,1-2.9,1.3v0c-8,2.5-16.3-3.5-16.3-12c0-7,5.6-12.6,12.6-12.6c2.4,0,4.7,0.7,6.6,1.9c1.1,0.6,2.3,0.7,3.5,0.3
	C181.1,49.5,181.5,49.1,182,48.5L182,48.5z M147.9,76.9c-1.9,1.2-3.9,2.1-6.1,3c-2.1,0.8-4.4,1.2-6.9,1.2c-2.4,0-4.5-0.5-6.4-1.5
	c-1.8-1-3.3-2.5-4.3-4.4c-1-1.9-1.5-4.2-1.5-6.8V55h0.1v-7.5h-8.3l0,0c0-4.6,3.7-8.3,8.3-8.4v-4.8c0-4.6,3.8-8.4,8.4-8.4h0v13.2
	h13.1l0,0c0,4.6-3.8,8.4-8.4,8.4h-4.7V55h0.1v11.4c0,2.1,0.5,3.7,1.5,4.8c1,1.1,2.4,1.7,4.2,1.7c0.7,0,1.4-0.1,2.1-0.3
	c0.7-0.2,1.4-0.6,2.2-1c0.7-0.3,1.4-0.5,2.2-0.5c0.7,0,1.3,0.2,1.8,0.5c0.5,0.3,0.9,0.8,1.1,1.3L147.9,76.9L147.9,76.9z M196.3,60
	L196.3,60c0.1-2.2,1.8-3.9,4-4v0h0.1h20.5c-0.9-2.7-2.8-5-5.1-6.5c0,0-0.1,0-0.1-0.1c-1.9-1.2-4.2-1.9-6.6-1.9
	c-5.5,0-10.2,3.6-11.9,8.5l0,0c0,0.1-0.1,0.2-0.1,0.2l0,0.1c0,0.1,0,0.2-0.1,0.2l0,0c0,0.1,0,0.2-0.1,0.2l0,0l0,0
	c0,0.1,0,0.2-0.1,0.2l0,0l0,0l0,0c0,0.1,0,0.2-0.1,0.3l0,0l0,0c0,0.1,0,0.2-0.1,0.3l0,0.1c0,0.1,0,0.2,0,0.3l0,0l0,0l0,0
	c0,0.1,0,0.2,0,0.3l0,0.1c0,0.1,0,0.2,0,0.3l0,0v0l0,0c0,0.1,0,0.2,0,0.3l0,0l0,0l0,0c0,0.1,0,0.2,0,0.3l0,0l0,0l0,0
	c0,0.1,0,0.2,0,0.3l0,0.1L196.3,60L196.3,60z M225.9,64.3L225.9,64.3l-0.3,0H197c2.1,6.2,9,10,15.7,7.9v0c1-0.3,2-0.8,2.9-1.3
	c1.1-0.6,2.3-0.7,3.5-0.3c0.8,0.3,1.2,0.7,1.7,1.2l3,3C211,87.9,188,79.2,188,60.2c0-11.6,9.4-20.9,20.9-20.9c1,0,1.9,0.1,2.8,0.2v0
	c0.2,0,0.4,0.1,0.6,0.1c0.1,0,0.2,0,0.3,0.1l0.1,0c3.4,0.6,6.5,2,9.1,4.2c4.8,3.8,7.9,9.6,8,16.2c0,0.1,0,0.1,0,0.2
	C229.8,62.3,228.1,64.1,225.9,64.3L225.9,64.3z M235,81.1L235,81.1l0-37.7h0v-8.9c0-4.6,3.8-8.4,8.4-8.4h0v37.7h0v8.9
	C243.4,77.3,239.6,81.1,235,81.1L235,81.1z"/>
</svg>
